<svg xmlns="http://www.w3.org/2000/svg" viewBox="0 0 720 1459"><path fill="#f4f0e9" d="M0 0h720v1459H0z"/><path fill="#bcc69c" d="m636 1147 1.03 2.12c8.89 18.16 8.89 18.16 18.9 35.71A54 54 0 0 1 661 1195l-7.06-1.94-2-.55c-20.7-5.6-42.54-4.27-61.5 5.74A35.4 35.4 0 0 0 577 1213c-.73 7.76-.76 14.96 3.16 21.87 3.46 4 8.05 6.07 12.84 8.13v2l2.14.74c5.52 2.44 10.1 6.6 14.86 10.26l2.5 1.8c9.35 6.81 17.99 17.15 21.14 28.5 2.37 17.66-1.72 31.83-12.45 46.1-4.66 5.64-9.7 9.29-16.19 12.6l-1.95 1c-15.79 7.4-36.1 2.2-52.05-2l-2-1c-10.63-1.13-20.87 4.62-29 11-6.97 7.21-9.57 14.77-9.5 24.63l.02 2.66A44 44 0 0 0 516 1402l1.32 2.47c4.93 8.2 12.56 14.61 20.68 19.53-2.68 2.68-4.67 2.64-8.4 3.25l-3.89.65-4.09.66-7.96 1.32-3.58.58c-2.4.42-4.72.9-7.08 1.54-3.6.83-6.42 1.06-10 0-10.48-9.67-18.21-26.67-19.13-40.97-.64-17.78 2.57-33.64 14.5-47.53 5.59-5.8 12.79-11.93 21.1-12.74l2.58.01h2.87l2.96.04h2.93c5.17.04 10.07.4 15.19 1.19 15.51 1.28 30.11-.68 42.6-10.72 11.86-11.3 18.44-27.35 18.83-43.62.03-12.35-2.32-20.44-10.3-30.1C586 1246 586 1246 586 1244l-1.66-.67c-3.08-1.75-5.34-4.12-7.78-6.64l-1.4-1.44q-2.1-2.12-4.16-4.25l-2.66-2.63c-8.45-8.57-14.33-19.2-14.72-31.37.11-12.18 6.48-22.93 14.63-31.69 11.38-10.8 26.68-14.97 41.81-16.93l2.88-.41c7.7-1.01 15.3-1.11 23.06-.97"/><path fill="#bfc7a5" d="M339 508c1.25 1.3 1.25 1.3 2.5 3.16l1.42 2.07 1.52 2.27 3.22 4.7 1.67 2.42c2.57 3.67 5.27 7.25 7.98 10.82C370 550.24 370 550.24 370 553l-2.5.16c-14.93 1.46-28.33 8.06-38.04 19.69-7.57 10.1-8.31 19.98-7.46 32.15 1.45 5.95 4.65 10.21 8.83 14.59C332 621 332 621 332 623l2.04.27c3.73.92 6.9 2.59 10.27 4.36a306 306 0 0 0 17.06 8.12l2.03.89q5.46 2.34 11.04 4.36c10.63 4.2 18.53 12.94 23.56 23 4.24 12.8 2.82 25.16-3 37.12-9.87 18.49-32.28 36.04-52 42.88-3.73-.22-5.4-2.1-7.87-4.75a75 75 0 0 0-7.63-7.12L325 730v-2l-1.78-.31c-2.59-.8-3.8-1.85-5.78-3.69a266 266 0 0 0-13.22-11.08C302 711 302 711 301 709c6.42-2.01 6.42-2.01 9.44-1.94 3-.07 5.37-.97 8.15-2.1q2.65-1.05 5.32-2c17.95-6.45 36.51-17.17 45.09-34.96 2.28-5.9 2.84-11.9 1-18-3.27-6.06-7.06-10.08-13.56-12.5q-2.7-.81-5.44-1.5-3.52-.95-7-2l-1-2c-2.18-.51-2.18-.51-4.81-.81-12.64-2.13-22.44-7.97-31.19-17.19l-1.44-2.44c-1.48-2.69-1.48-2.69-3.96-4.83-7.93-8.31-10.54-20.33-10.91-31.48.52-21.42 11.34-40.11 26.44-54.82C331.78 508 331.78 508 339 508"/><path fill="#be9ed7" d="m496 1027-1.69 1.84A310 310 0 0 0 479 1047l-1.6 2.05-8.94 11.49-1.73 2.21q-1.75 2.28-3.42 4.64c-4.01 5.55-7.77 8.63-13.94 11.55l-2.44 1.22q-3.96 1.94-7.93 3.84l-5.84 2.86q-5.5 2.68-11.04 5.3l-2.27 1.08c-1.85.76-1.85.76-3.85.76v2l1.76.85c14.72 7.56 31.43 19.19 39.24 34.15.73 2.48.94 4.4 1 7h2l-.06 2.44c-.24 2.5-.24 2.5 1.06 3.56.44 5.51-.62 9.06-3 14l-.79 2.3c-1.58 3.54-3.85 6.39-6.27 9.39l-1.49 1.85c-11.5 14.27-20.79 22.46-39.45 25.46-18.3 1.17-40.58-1.74-55-14 .98-8 2.29-15.87 4-23.75l.5-2.38c1.26-5.63 1.26-5.63 3.5-7.87l1.19 2.19c1.97 3.05 4.18 5.31 6.81 7.81l1.38 1.63c2.02 1.71 4.23 2.58 6.68 3.55a61 61 0 0 1 5.63 2.82c16.45 8.07 37 6.6 54.31 2l-1.5-2.81C436 1163 436 1163 436 1160l-2.06-.62a22 22 0 0 1-6.13-4.13c-5.68-5-11.97-8.42-18.8-11.6l-2.77-1.3a448 448 0 0 0-5.49-2.48c-7.18-3.3-14.29-7.18-18.75-13.87-1.56-7.58 1.6-12.95 5.56-19.19l1.56-2.61c2.55-4.15 4.94-7.47 8.78-10.5 1.76-1.33 1.76-1.33 3.1-2.7.2-2.42.2-2.42 0-5 1.25-2.77 2.9-5.27 4.56-7.81l1.39-2.16c7.36-11.28 15.83-18.7 27.74-24.97l2.6-1.37c13.15-6.69 27-11.9 40.71-17.28q5.8-2.27 11.42-4.91c3.58-1.5 3.58-1.5 6.58-.5"/><path fill="#bf9ed8" d="M185 457c0 2 0 2-1.98 4.12L180 464c-10.16 9.94-19.6 19.91-28.42 31.05-7 8.47-14.57 12.69-24.58 16.95l-5.55 2.42q-6.65 2.87-13.32 5.65-3.1 1.37-6.13 2.93c3.57 3.67 7.31 7.04 11.25 10.31l3.47 2.94q2.86 2.4 5.78 4.75c6.85 5.67 11.74 12.55 16.5 20l1.52 2.38c3.58 6.68 3.5 14.25 2.48 21.62-1.36 3.66-3.38 6.13-6 9l-1.35 1.5a401 401 0 0 1-7.76 8.41 141 141 0 0 0-6.64 7.59c-6.94 7.9-16.64 11.86-27.03 12.73C73.9 625.26 57.7 622.12 40 612l-2.45-1.3C36 609 36 609 35.54 606.13c.35-5.95 2.25-11.74 3.84-17.45l.96-3.61c2.4-8.82 2.4-8.82 4.66-11.08l3.38 4.75 1.9 2.67a23 23 0 0 1 2.76 4.85c.9 2.09.9 2.09 3.96 2.73v2l2.25-.14c3.04.15 4.23.76 6.75 2.39 5.66 3.35 11.7 5.03 18 6.75l1.93.54c3.63.8 7.3.65 11 .65h2.56c7-.06 13.64-.8 20.51-2.19l-1.37-3.81-.78-2.15c-1.81-4.35-3.94-5.71-7.85-8.04q-1.94-1.56-3.86-3.13c-5.73-4.5-11.98-7.95-18.33-11.5C68.97 559.86 68.97 559.86 65 551c-.7-4.38-.27-6.45 1.69-10.44 3.51-4.51 8.66-7.15 13.54-9.96 2.6-1.34 2.6-1.34 3.77-2.6l-1.75 1.06c-2.6 1.09-3.64.87-6.25-.06l1.63-1.87a71 71 0 0 0 5.12-7.82 95 95 0 0 1 9.52-13.08A32 32 0 0 0 96 500c14.48-18.4 37.11-25.54 58.7-32.54 6.87-2.28 13.6-4.93 20.35-7.51l3.03-1.16 2.73-1.04C183 457 183 457 185 457"/><path fill="#c197e9" d="M514 726a1774 1774 0 0 1 18.08 9.04c14.98 7.45 28.93 18.02 35.12 34.25 3.56 16.47.95 33.09-7.95 47.34A41.4 41.4 0 0 1 540 832l-2.7 1.13c-15.42 5.66-35.16 3.95-50.86-.25-7.62-1.94-12.75-.58-19.44 3.12-9.34 5.6-14.41 14.03-18.08 24.14-2.74 11.5-2.35 24.23 3.08 34.86l2 4c-22.27.6-39.77-3.67-59-15 .84-14.57 9.28-27.16 19.62-37.03 17.65-14.6 36.74-20.42 59.39-20.4 15.13-.03 29.1-2.8 40.24-13.79 12.71-14.83 15.07-31.79 14.08-50.6-1.21-11.59-6.86-22.34-13.04-32.03C514 728 514 728 514 726"/><path fill="#eea1a6" d="m579 362 4 1v3h2v-2c3 1 3 1 5 4l1.96.96c6.16 3.15 8.78 12.77 11.1 18.77 3.27 11.35 1.07 23.39-4.31 33.66-7.36 11.98-18.1 21.1-31.75 24.61-3.1.41-6.13.48-9.25.44l-2.53-.04c-9.61-.28-17.21-2.88-25.74-7.11-1-.5-2-1-3.04-1.5q-3-1.5-5.96-3.08c-7.76-3.95-14.1-4.84-22.64-3.05-11.28 4.4-18.5 9.41-23.87 20.46-3.77 9.5-2.77 19.57.77 28.96 3.29 7.61 6.68 14.03 12.94 19.58C489 502 489 502 489 504c-35.58.42-35.58.42-43-4.26-2.8-3.06-3.85-6.7-4.6-10.7-.41-2.1-1-4.07-1.64-6.1-4.3-14.07-3.84-27.4 2.3-40.88 6.34-11.76 14.64-22.03 27.38-27 12.84-3.58 26.33.87 38.47 5.23 12.35 4.2 26.1 4.8 38.21-.6 5.55-3.27 10.21-7.58 14.4-12.46C562 406 562 406 566 406l.88-2.2 2.08-5.12c4.78-11.56 4.78-11.56 5.98-23.87-.18-5.55.82-8.35 4.06-12.81"/><path fill="#a7b37d" d="m50 32 2.7 1.39C64.35 39.9 72.6 48.5 77.16 61.23c5.29 23.62-4.5 44.67-15.87 64.8-2.94 6.77-2.23 15.31.15 22.22C65.7 157.4 73.33 164.13 82 169l2.34 1.47c8.5 4.71 18.17 4.49 27.66 3.53l3-1c-.5 6.33-1.58 11.54-4.06 17.38l-.95 2.24A68 68 0 0 1 99 210l-1.63 1.93q-2.7 3.19-5.5 6.32l-1.77 2.06c-4.26 4.65-4.26 4.65-8.22 4.83C70.22 220.52 60.23 208.11 55 197c-7.16-18.32-11.27-38.94-3.38-57.7 5.62-13.46 8.48-30.13 3.34-44.18C48.56 81.03 36.34 69.76 22 64a92 92 0 0 0-22-5V34c16.63-7.9 32.9-10.87 50-2"/><path fill="#a4b17b" d="M51.85 812.3 54 814l2.52 1.9A43.7 43.7 0 0 1 72 841c1.64 18.13-2.68 34.36-11.32 50.32-5.35 9.96-8.69 17.13-6 28.57 2.06 6.68 5.33 11.3 10.32 16.11l1.88 1.87c11.38 10.7 24.18 12.4 39.12 13.13v-2h3c-1.1 14.6-8.65 28.36-18.44 39.06l-2.37 2.6Q84.68 994.41 81 998l-2 2c-7.64-.69-14.2-6.59-19.3-11.95-3.36-4.06-6.05-8.51-8.7-13.05l-1.19-1.92C46 966.34 44.72 958.48 43 951l-.54-1.99C39.8 937.4 42.35 925.04 46 914l.86-2.61 1.48-4.38c4.33-13.16 4.55-27.94-1.56-40.52-8.32-15.11-22.74-24.3-38.72-29.62A118 118 0 0 0 0 835v-28c17.1-7.33 36.61-5.92 51.85 5.3"/><path fill="#c5a0e4" d="M532 0h39c0 16.87-2.87 31.89-14.81 44.56A44 44 0 0 1 541 54l-2.49.96c-15.33 4.84-32.65 2.29-48.18-.27-9.28-1.52-15.59-1.53-23.82 3.48-9.23 6.74-14.54 16.57-17.01 27.58-1.63 10.63-1.26 20.54 4.08 29.98l1.37 2.43L456 120c-21.85.54-40.74-2.04-59-15 0-12.41 7.31-24.27 15.8-32.9L415 70l1.86-1.88c16.75-15.97 38.95-20.57 61.28-20.56 14.3-.02 26.15-2.65 36.95-12.45C524.76 25.1 528.23 13.2 532 0"/><path fill="#f3c7c8" d="M607 217c1.4 1.94 1.4 1.94 3.01 4.64l1.8 3 1.88 3.17q1.8 3.05 3.63 6.08l1.84 3.07A545 545 0 0 0 631.94 257l1.77 2.69C635 262 635 262 635 265l-3.6 1.07c-23.06 6.98-42.51 16.22-59.4 33.93l-1.5 1.4c-6.85 7.3-9.65 16.08-9.86 25.88 1.13 8.47 5.1 13.25 10.92 19.16l2.08 2.18c3.33 3.64 3.33 3.64 7.36 6.38v2l1.77.71c2.74 1.58 4.1 3.38 5.98 5.92l1.86 2.47L592 368c-3 0-3 0-5.19-2l-1.81-2v2h-2l-1-3-3-1c-1.72 4.01-3.13 7.65-2.88 12.08.37 6.72-1.23 11.67-3.83 17.84-1.33 3.07-1.33 3.07-2.35 6.3A34 34 0 0 1 566 406l-4-1 1.17-1.8c8.04-12.8 12.28-26.4 9.15-41.5-2.26-7.2-5.53-14.98-11-20.35C560 340 560 340 560 338l-1.8-.74c-4.32-2.47-6.56-7.16-9.2-11.26l-1.2-1.86q-1.88-2.96-3.74-5.95l-1.22-1.92c-2.15-3.56-3.36-6.08-2.84-10.27h-2c-3.94-16.7-4-28.92 5-44 7.87-11.32 17.79-20.1 29-28l2.44-1.77c7.95-5.44 22.7-15.23 32.56-15.23"/><path fill="#f3c5c6" d="M608 1009a52 52 0 0 1 3.66 5.66l1.05 1.75q1.69 2.82 3.35 5.65l5.73 9.6a573 573 0 0 0 10.52 16.9c2.69 4.23 2.69 4.23 2.69 6.44l-3.16 1.07c-20.6 7.05-39.43 14.95-55.13 30.43a23 23 0 0 1-6.71 4.5c-.74 1.97-.74 1.97-1 4l-1 2h-2l-.69 2.5c-1.88 5.01-3.87 10.3-8.87 12.75-3.33-.34-4.32-1.76-6.44-4.25l-2-1v-2l-1.81-.69c-3.37-2.02-4.69-4.53-5.75-8.29q-.79-3.5-1.44-7.02l-.57-2.73c-1.43-6.94-1.43-6.94-1.43-9.27l-.18-2.72c-.32-8 .53-12.8 5.18-19.28l1.73-2.6c9.22-13.45 45.15-49.77 64.27-43.4"/><path fill="#f2b8bc" d="m183.25 1221.69 2.93-.01c4.75.03 8.48.2 12.82 2.32q3 .38 6 .71c2.8.4 5.36 1.3 8 2.29v2l-2.93.26c-10.66 1.15-19.79 3.27-27.4 11.44-8.34 11.48-10.4 22.42-9.67 36.3 2.25 13.52 13.91 22.2 24.25 29.94 6.11 4.91 10.2 9.71 11.21 17.68.38 14.7-4.37 26.68-14.37 37.5-9.09 8.18-20.36 11.62-32.23 13.33-3.4-.53-4.48-1.7-6.49-4.41l-1.18-1.73-1.27-1.75q-1.99-2.76-3.92-5.56l-2.64-3.76A733 733 0 0 1 140 1349c2.7-1.35 5.07-.98 8.02-.88 11.23.33 20.27-1.14 29.26-8.4 5.65-5.63 7.84-11.5 8.03-19.35-.03-6.21-1.69-10.82-4.31-16.37l-1-3c-2.28-1.06-2.28-1.06-5-2-12.5-6.46-24.6-14.3-30.12-27.73-2.7-10.05-1.96-21.41 2.64-30.72 5.49-9.46 11.46-14.55 21.92-17.94 4.58-1.1 9.12-1 13.81-.92"/><path fill="#b3bf93" d="M339 508c1.25 1.3 1.25 1.3 2.5 3.16l1.42 2.07 1.52 2.27 3.22 4.7 1.67 2.42c2.57 3.67 5.27 7.25 7.98 10.82C370 550.24 370 550.24 370 553l-2.5.16c-14.93 1.46-28.33 8.06-38.04 19.69-7.57 10.1-8.31 19.98-7.46 32.15 1.45 5.95 4.65 10.21 8.83 14.59C332 621 332 621 332 623l2.17.34c3.02.7 5.4 1.8 8.14 3.22l2.68 1.38L347 629l-1 4c-15.62-2.84-27.93-7.34-39-19l-1.44-2.44c-1.48-2.69-1.48-2.69-3.96-4.83-7.93-8.31-10.54-20.33-10.91-31.48.52-21.42 11.34-40.11 26.44-54.82C331.78 508 331.78 508 339 508"/><path fill="#bcc4a0" d="m636 1147 1.03 2.12c8.89 18.16 8.89 18.16 18.9 35.71A54 54 0 0 1 661 1195l-7.06-1.94-2-.55c-20.7-5.6-42.54-4.27-61.5 5.74A35.4 35.4 0 0 0 577 1213c-.83 8.84-.65 16.78 5 24 3.09 2.18 3.09 2.18 6 3l-1 3-3 1-11.38-11.38-4.36-4.32c-8.41-8.56-14.25-19.17-14.63-31.3.1-12.18 6.47-22.93 14.62-31.69 11.38-10.8 26.68-14.97 41.81-16.93l2.88-.41c7.7-1.01 15.3-1.11 23.06-.97"/><path fill="#9aa873" d="M537 1338v2h6l1 2-2.46.85c-12.9 4.67-22.75 9.87-29.16 22.3-1.84 4.43-1.92 8.73-1.88 13.47l.02 2.67A44 44 0 0 0 516 1402l1.32 2.47c4.93 8.2 12.56 14.61 20.68 19.53-2.68 2.68-4.67 2.64-8.4 3.25l-3.89.65-4.09.66-7.96 1.32-3.58.58c-2.4.42-4.72.9-7.08 1.54-3.6.83-6.42 1.06-10 0-10.48-9.67-18.21-26.67-19.13-40.97-.58-16.02 1.57-31.71 12.17-44.48 15.32-14.58 31.92-12.8 50.96-8.55"/><path fill="#c39ee4" d="m517 809 2 2c-1.51 3.78-3.71 5.69-6.87 8.19l-2.62 2.1A15 15 0 0 1 503 824l-2.25 1.44c-3.53 2-6.8 2.69-10.75 3.56v2c13.95 1.83 13.95 1.83 28 2l3.24-.12c11.28-.5 11.28-.5 20.76-5.88h4v-2h3v-3h2v-3h3l1-3 5-1c-8.11 12.25-18.81 17.9-33 21-3.08.22-6.16.19-9.25.19h-2.68c-9.63-.1-19.3-.82-28.63-3.32-7.62-1.93-12.75-.57-19.44 3.13-9.34 5.6-14.41 14.03-18.08 24.14-2.74 11.5-2.35 24.23 3.08 34.86l2 4c-22.27.6-39.77-3.67-59-15 .84-14.57 9.28-27.16 19.62-37.03 17.65-14.6 36.74-20.42 59.39-20.4 14.7-.03 28.94-2.56 39.78-13.36 1.53-1.75 1.53-1.75 3.21-4.21"/><path fill="#dd7a7f" d="m487.19 418.06 2.5.94A137 137 0 0 1 510 429v1l-2.35.2c-10.33 1.16-21.15 4.35-28.34 12.36-6.65 9.13-8.33 18.35-7.31 29.44 2.39 10.83 7.32 21.26 15.68 28.66C489 502 489 502 489 504c-35.58.42-35.58.42-43-4.26-2.8-3.06-3.85-6.7-4.6-10.7-.41-2.1-1-4.07-1.64-6.1-4.3-14.07-3.84-27.4 2.3-40.88 9.7-17.98 23.98-32.22 45.13-24"/><path fill="#c1c7a7" d="M71 841h1c.72 18.5-2.4 33.84-11.32 50.32-5.35 9.96-8.69 17.13-6 28.57 2.06 6.68 5.33 11.3 10.32 16.11l1.88 1.87c11.38 10.7 24.18 12.4 39.12 13.13v-2h3c-1.1 14.6-8.65 28.36-18.44 39.06l-2.37 2.6Q84.68 994.41 81 998l-2 2c-7.64-.69-14.2-6.59-19.3-11.95-3.36-4.06-6.05-8.51-8.7-13.05l-1.19-1.92C46 966.34 44.72 958.48 43 951l-.54-1.99C39.8 937.4 42.35 925.04 46 914l.86-2.61 1.48-4.37c2.56-7.88 3.18-15.78 3.66-24.02h1l1 12 3 1 .75-2.31c1.37-4.06 2.84-8.07 4.31-12.1q1.02-2.81 1.94-5.65c1-2.94 1-2.94 1.93-5 2.88-6.54 3.87-12.48 4.32-19.57l.23-3.04q.29-3.66.52-7.33"/><path fill="#c2c8a7" d="m64 114 3 1-1.53 2.57c-5.33 9.42-7.25 17.29-4.87 28.18 3.48 10.41 12.06 18 21.4 23.25l2.34 1.47c8.5 4.71 18.17 4.49 27.66 3.53l3-1c-.5 6.33-1.58 11.54-4.06 17.38l-.95 2.24A68 68 0 0 1 99 210l-1.63 1.93q-2.7 3.19-5.5 6.32l-1.77 2.06c-4.26 4.65-4.26 4.65-8.22 4.83C70.22 220.52 60.23 208.11 55 197c-7.12-18.22-11.38-39-3.38-57.63a82 82 0 0 0 3.7-12.25l.51-2.15q.6-2.48 1.17-4.97l2 3-1 3h2l.88-3.19c.9-3.04 1.88-5.9 3.12-8.81"/><path fill="#decbee" d="M264 1146c4.95 4.85 6.94 12.57 9 19l.7 1.99c3.47 11.35 1.88 25.02-2.92 35.73-7.31 13.16-19.3 21.38-33.62 25.5-4.86 1.1-9.7 1-14.66.9l-2.78-.02-6.72-.1v-2l-2-1 1.72-.48c9.19-2.78 14.02-6.32 18.92-14.63 3.3-7.03 4.9-13.36 4.8-21.14l-.03-2.5c-.36-13.32-5-23.87-14.35-33.37L220 1152c8.8-1.58 17.65-2.8 26.52-3.95l2.8-.37 2.51-.32c10.15-1.67 10.15-1.67 12.17-1.36"/><path fill="#ceb2e4" d="m496 1027-1.69 1.84A310 310 0 0 0 479 1047l-1.6 2.05-8.94 11.49-1.73 2.21a149 149 0 0 0-3.42 4.64c-3.99 5.51-7.69 8.59-13.81 11.48l-2.44 1.22A672 672 0 0 1 439 1084l-6.14 3c-15.89 7.73-15.89 7.73-22.86 10a99 99 0 0 0-22 14c-1-3-1-3 .19-5.49 3.35-5.23 6.35-9.57 11.52-13.1 1.55-1.36 1.55-1.36 1.2-3.59.14-4.29 2.35-7.1 4.65-10.63l1.39-2.16c7.36-11.28 15.83-18.7 27.74-24.97l2.6-1.37c13.15-6.69 27-11.9 40.71-17.28q5.8-2.27 11.42-4.91c3.58-1.5 3.58-1.5 6.58-.5"/><path fill="#cfb2e3" d="M185 457c0 2 0 2-1.98 4.12L180 464c-10.16 9.94-19.6 19.91-28.42 31.05-7 8.47-14.57 12.69-24.58 16.95l-5.48 2.38q-5.44 2.35-10.9 4.64a129 129 0 0 0-8.05 3.7c-2.89 1.44-5.39 1.82-8.57 2.28q-3 .95-6 2a124 124 0 0 1-12 3l1.17-1.72a131 131 0 0 0 6.7-10.72c2.28-4.12 5.32-7.62 8.33-11.23A33 33 0 0 0 96 500c14.48-18.4 37.11-25.54 58.7-32.54 6.87-2.28 13.6-4.93 20.35-7.51l3.03-1.16 2.73-1.04C183 457 183 457 185 457"/><path fill="#c39bea" d="M534 0h37c0 12.38 0 12.38-1 18h-2l-.84 2.77-2.19 7.2C564 31 564 31 563 33h-2v2l-2 1a134 134 0 0 0-3 6h-2l-1 3c-9.23 8.22-20.24 10.53-32.26 10.04L518 55l-1 1a117 117 0 0 1-6.69-.25l-3.7-.2c-3.75-.57-6.33-1.68-9.61-3.55 2.05-6.14 10.16-8.73 15.6-11.54 2.65-1.39 2.65-1.39 4.4-4.46h3c2-3.86 3.74-7.83 5.5-11.81l.93-2.08A92 92 0 0 0 531 9z"/><path fill="#b393cf" d="M362 1149c3 2 3 2 3.75 4.25 2.91 6.4 8.94 9.31 15.25 11.75l3.69 2c17.26 8.47 39.6 6.71 57.49.98q3.95-1.4 7.82-2.98l2.8-1.12 2.2-.88a74 74 0 0 1-9.81 14.06l-1.5 1.78c-10.19 11.8-21.58 17.18-37.26 18.45-17.17.4-37.94-2.83-51.43-14.29.98-8.02 2.3-15.87 4.06-23.75l.53-2.38c1.27-5.6 1.27-5.6 2.41-7.87"/><path fill="#b593cf" d="M44 574a57 57 0 0 1 6.13 7l1.57 2.06C53 585 53 585 54 588l3 1v2l2.25-.14c3.04.15 4.23.76 6.75 2.39 5.66 3.35 11.7 5.03 18 6.75l1.94.53c10.23 2.32 22.02.64 32.19-1.22l2.57-.45c6.13-1.22 11.02-3.56 16.3-6.86-1.74 3.7-3.9 6.26-6.69 9.25a224 224 0 0 0-8.94 10.13c-7 7.95-16.66 11.98-27.15 12.85C73.9 625.26 57.7 622.12 40 612l-2.45-1.3C36 609 36 609 35.54 606.13c.35-5.95 2.3-11.74 3.9-17.45l.98-3.61c2.41-8.74 2.41-8.74 3.58-11.08"/><path fill="#ea7586" d="m181 1302 6 2v2l2.44.5c5.03 2.12 8.83 5.53 12.56 9.5v2h3c4 7.5 4.03 14.9 1.88 23.06-4.2 12.36-12.1 22.13-23.48 28.4-7.19 3.26-16.5 6.8-24.4 5.54a35 35 0 0 1-4.81-5.69l-1.27-1.75q-1.99-2.76-3.92-5.56l-2.64-3.76A733 733 0 0 1 140 1349c2.7-1.35 5.07-.98 8.02-.88 11.23.33 20.27-1.14 29.26-8.4 5.65-5.63 7.84-11.5 8.03-19.35-.02-5.44-1.15-9.5-3.44-14.4-.87-1.97-.87-1.97-.87-3.97"/><path fill="#62a1e4" d="m416 361-1 31a656 656 0 0 1-25.05 5.85l-14.43 3.1-5.56 1.19-2.64.56c-6.09 1.3-6.09 1.3-8.32 1.3q-1.01-4.59-2-9.19l-.58-2.62-.55-2.55-.5-2.33c-.4-2.47-.43-4.81-.37-7.31a750 750 0 0 1 35.19-11.75l13.58-4.28q1.15-.38 2.35-.74l2.06-.65c4.96-1.58 4.96-1.58 7.82-1.58"/><path fill="#f5d27b" d="M332 1303c4.54 1.67 8.7 3.9 12.94 6.19l4.15 2.23 2.25 1.26c2.75 1.44 2.75 1.44 6.23 2.53 9.17 3.28 9.17 3.28 11.36 7.63 1.71 5.46 2.04 11.11 2.44 16.79l.54 5.12c.62 6.07 1.2 12.14 1.09 18.25a52 52 0 0 1-10.31-5.25c-7.75-4.84-15.65-9.42-23.55-14l-3.05-1.77-2.75-1.6A119 119 0 0 1 328 1337c-.5-7.06.48-13.94 1.44-20.94l.4-3.15c1.02-7.64 1.02-7.64 2.16-9.91"/><path fill="#66a1df" d="M225 886c7 3.37 13.68 7.08 20.31 11.13l2.63 1.58 4.94 3.01q2.56 1.53 5.19 2.92L260 906c2.22 14.58-5.4 30.86-13.75 42.42L245 950l-4.56-1.31-2.57-.74c-3.38-1.12-6.6-2.53-9.87-3.95l-.06-3.05a3110 3110 0 0 0-.36-16.36c-.2-9.83-.76-19.43-2.16-29.17-.4-3.18-.5-6.22-.42-9.42"/><path fill="#f5d37b" d="M627 700c3.44.57 6.16 1.42 9.22 3.07l2.39 1.28 2.45 1.34 4.79 2.57 2.47 1.38a25 25 0 0 0 5.88 2.51c3.4 1.32 5.98 2.52 8.8 4.85 2.03 4.8 2.4 9.6 2.75 14.75l.41 4c.7 7.09 1.03 14.13.84 21.25a65 65 0 0 1-9.48-4.47l-2.57-1.47-2.7-1.56-2.79-1.6a2867 2867 0 0 1-18.21-10.59l-2.18-1.27c-4.95-2.92-4.95-2.92-6.07-4.04-.4-7 .78-13.62 2-20.5l.58-3.36z"/><path fill="#6ba4e1" d="M225 96c6.25 1.63 11.45 5.02 16.94 8.31l2.92 1.73c10.75 6.4 10.75 6.4 15.14 9.96 2.55 12.77-5.43 28.5-12 39a137 137 0 0 1-3 4c-4.17-.45-7.82-1.6-11.73-3.05l-3-1.1L228 154l-.06-2.74c-.42-18.48-1.08-36.85-2.94-55.26"/><path fill="#6ea7e7" d="M651 534c2.32 3.48 2.74 6.09 3.5 10.19a164 164 0 0 0 2.69 12.43c.72 3 .88 5.33.81 8.38-7.42 4-15.1 7.06-23.02 9.91q-2.97 1.07-5.93 2.16C610.06 584 610.06 584 605 584l-1-6.5-.56-3.66c-.46-4.01-.51-7.8-.44-11.84l3.12-1.4A242 242 0 0 0 651 534"/><path fill="#fbc824" d="M165.23 718.62c20.3-2.24 20.3-2.24 26.01 2.07 3.63 4.25 5.9 9.04 7.92 14.22 1.02 2.53 2.42 4.76 3.84 7.09v2l-16.73 5.65q-3.06 1.05-6.12 2.06l-3.71 1.26A62 62 0 0 1 167 755l-1.05-1.54A4732 4732 0 0 0 145 723l1-2c4.35-1.04 8.77-1.4 13.22-1.76q3-.26 6-.62"/><path fill="#fccd43" d="M383 204h2l5.25 10.94 1.49 3.1A548 548 0 0 1 400 236l-1.55 1.63c-6.12 6.6-11.5 13.6-16.85 20.83l-1.38 1.87q-1.5 2.06-2.95 4.15L376 266h-2a2161 2161 0 0 1-6.87-15.66q-1.27-2.86-2.5-5.73l-1.53-3.47c-1.06-3.02-1.49-4.98-1.1-8.14 1.8-2.77 1.8-2.77 4.31-5.81a226 226 0 0 0 13.1-18.16q1.74-2.56 3.59-5.03"/><path fill="#faca3b" d="M383 994c3.23 1.62 3.92 5.05 5.25 8.25l1.86 4.38.95 2.22q1.32 3.01 2.77 5.96l1.67 3.44 1.53 3.08c.97 2.67.97 2.67.87 4.75-1.21 2.59-2.86 4.3-4.84 6.36A184 184 0 0 0 374 1057a36 36 0 0 1-5.2-8.74l-1.17-2.73-1.2-2.84-1.2-2.8A347 347 0 0 1 362 1032l-.86-2.02c-.67-1.78-.67-1.78-1.14-4.98 1.54-2.9 1.54-2.9 4.06-5.81l2.78-3.35 1.53-1.82c3.09-3.82 5.9-7.84 8.75-11.83z"/><path fill="#b3ba91" d="M63 757a46 46 0 0 1 12.56 5.94l1.83 1.19c21.03 14 34.98 32.7 44.61 55.87l1.39 3.31c4 11.48 2.98 23.7 2.61 35.69-2.5 1.25-3.41.78-6 0l-.08-3.78c-.54-18.37-3.8-33.2-12.92-49.22l-1.65-2.95C94.63 785.13 79.65 772.08 61 763z"/><path fill="#5497dd" d="M666 48c6.8 5.44 9.95 14.47 11.52 22.75.24 2.7.26 4.65-.52 7.25-2.3 2.51-4.68 4.15-8 5-3.38-1.3-5.49-3.27-7.98-5.85l-2.27-2.32-2.37-2.45C650.22 66.1 644.15 60.14 637 55c6.23-6.23 20.61-7.85 29-7"/><path fill="#f3d073" d="M165 1070c5.22 2.2 7.82 6.44 11.19 10.81l1.94 2.45 1.85 2.38 1.68 2.17A14 14 0 0 1 184 1095c-.77 1.99-.77 1.99-2.02 3.88l-1.35 2.1-1.44 2.14-1.41 2.17A501 501 0 0 1 174 1111l-2 3c-2 0-2 0-3.41-1.4l-1.65-1.97a377 377 0 0 0-11.02-12.33c-1.8-2.16-3-3.66-3.92-6.3.75-2.26.75-2.26 2.14-4.7l1.5-2.66 1.61-2.77 1.57-2.78c3.82-6.73 3.82-6.73 6.18-9.09"/><path fill="#f1cf72" d="M164 281a15.7 15.7 0 0 1 6.91 5.34l1.56 1.97 1.6 2.06 1.6 2.04 3.02 3.9a75 75 0 0 0 3.24 3.85c1.07 1.84 1.07 1.84.79 4.18a25 25 0 0 1-3.15 7.09l-1.47 2.4-1.54 2.48-1.52 2.54c-2.82 4.58-2.82 4.58-4.04 6.15h-2a95 95 0 0 1-4.06-4.87A311 311 0 0 0 151 304c1.73-4.94 4.4-9.27 7.06-13.75l1.4-2.36c3.4-5.75 3.4-5.75 4.54-6.89"/><path fill="#4f95db" d="M658.78 839.59c7.07-.55 7.07-.55 10.12 2 5.61 7.9 8.84 17.74 8.1 27.41q-2.1 1.34-4.25 2.63l-2.4 1.47c-2.35.9-2.35.9-4.4.32a33 33 0 0 1-5.89-5.8c-4.68-5.35-9.78-10.1-15.04-14.86-2.77-2.5-5.4-5.1-8.02-7.76l6.13-1.94 3.44-1.09a96 96 0 0 1 12.21-2.38"/><path fill="#e4d0a0" d="M706 612c6.07 2.74 11.5 6.64 14 13 1.29 8.91.62 18.05 0 27-8.14-1.5-16.43-6.1-21.37-12.88-1.29-2-2.47-4.04-3.63-6.12l-1.87-3.25c-1.25-3.05-1.25-3.77-.13-6.75 1.3-1.46 1.3-1.46 2.94-2.8l1.77-1.46 1.85-1.49 1.87-1.54q2.27-1.86 4.57-3.71"/><path fill="#589be0" d="M282 380c1.2 26.75 1.2 26.75 1 40l-3.69.06-2.07.04-2.24-.1-2.46-.1c-2.54-.9-2.54-.9-4.12-3.72l-1.31-3.73-.72-2q-1.13-3.15-2.2-6.32l-1.52-4.25C259 389.55 259 389.55 259 386c17.14-6 17.14-6 23-6"/><path fill="#c9d1b1" d="M599 1315h2l.73 1.8c1.97 4.63 3.98 8.33 7.27 12.2v2l1.75.75c2.55 1.42 4.27 3.13 6.25 5.25-6.72 5.6-13.93 10.04-22.62 11.69-4.2-.86-6.79-2.73-10.22-5.22A25 25 0 0 0 576 1340v-2l2.27-1.02 2.98-1.36 2.95-1.33 2.8-1.29 2.23-.91c2.3-1.42 2.74-2.61 3.77-5.09z"/><path fill="#b1b88c" d="M89 0c3.6-.65 5.51-.88 9 0 17.72 12.93 29.02 36.88 33.62 57.83.53 4.46.52 8.87.5 13.36l.02 2.73v2.62l-.01 2.38C132 81 132 81 131 84l-5-1-.08-3.81C124.97 46.92 111.84 22.54 89 0"/><path fill="#fbd364" d="M507 629c3.31 1.44 5.44 3.22 7.94 5.81l2.1 2.15L519 639l2.88 2.88C526 646 526 646 526.02 647.8c-1.58 3.4-4.4 5.26-7.33 7.45l-1.77 1.4c-3.32 2.52-4.62 3.35-8.92 3.35-2.44-1.86-2.44-1.86-5-4.31a85 85 0 0 0-9-7.69c.6-3.08 1.51-4.98 3.47-7.42l1.48-1.86 1.55-1.9 1.55-1.95c3.69-4.61 3.69-4.61 4.95-5.87"/><path fill="#81b2e9" d="M0 504a76 76 0 0 1 11.75 5.94l1.79 1.05c4.34 2.65 4.34 2.65 5.46 6.01-.94 2.58-1.94 5-3.08 7.48l-.99 2.23q-1.58 3.53-3.18 7.04l-2.1 4.7q-1.95 4.35-3.92 8.68Q3.31 552.53 1 558H0z"/><path fill="#ced1b9" d="M413 668h5c4.23 8.46 1.96 24.47-.84 33.2A121 121 0 0 1 413 711l-1.42 3.1c-6.48 12.9-18.1 27-31.58 32.9l-3-1c-.69-2.06-.69-2.06-1-4l2.01-1.4 2.68-1.85 2.63-1.83c13.85-9.94 24.9-26.13 28.68-42.92a106 106 0 0 0 1.06-17.5l-.01-2.5z"/><path fill="#c7aadf" d="M532 0h2l-.87 4.06-.5 2.29c-1.48 6.23-3.48 12-6.07 17.84l-.9 2.11c-3.1 7.06-3.1 7.06-5.66 9.7h-3l-.66 1.8c-1.78 2.92-3.69 3.74-6.72 5.26a50 50 0 0 0-7.85 4.62C500 49 500 49 498 49c.67 3.01.67 3.01 2.63 4.14 3.12 1.13 6 1.33 9.3 1.55l3.66.26c3.05.04 5.46-.31 8.41-.95q2.28.05 4.56.19c8.25.08 16.37-2.52 22.44-8.19h2l1-2q1.19-1.17 2.44-2.37c2.18-2.24 3.4-3.79 4.56-6.63h2v-2h2a202 202 0 0 0 5-19h1c1 8.63-2.86 17.46-7.87 24.38A125 125 0 0 1 558 42l-1.59 1.86c-8.35 9.17-20.19 12.82-32.3 13.46-15.6.47-30.76-1.76-46.11-4.32v-1l-22-2c4.26-2.13 6.3-2.25 10.97-2.27l4.17-.07 6.5-.04c14.4-.07 26.51-2.58 37.45-12.51C524.54 25.35 528.84 12.9 532 0"/><path fill="#c7b0d5" d="M455 810v5l-2.75.26c-23.76 2.66-42.1 12.47-57.56 30.55A75 75 0 0 0 381 876l-4-1c0-9.48 4.5-16.92 9-25l1.44-2.6c11.47-18.77 31.66-30 52.31-35.62A63 63 0 0 1 455 810"/><path fill="#c6add7" d="m457 32-1 4-3.37.45c-21.57 3.07-42.74 11.26-56.47 29.07C389.46 74.84 383.92 85.6 382 97l-4-1c-.37-5.12.86-8.97 2.94-13.56l.95-2.12c9.72-20.92 26.69-35.98 48.2-44.11 9-3.17 17.28-5.05 26.91-4.21"/><path fill="#f4f2e5" d="M16 345c3.21 1.64 5.25 2.97 7.38 5.88 1.3 4.43 1.11 7.2-1.07 11.3-3.31 4.04-5.56 5.57-10.75 6.32-4.78-.67-6.2-2.07-9.56-5.5-2.31-3.26-2.47-6.06-2-10 4.06-7.28 7.97-9.12 16-8"/><path fill="#f5f1e6" d="M263 519c3.33 2.06 6.24 4.47 8 8 .13 4.86-.32 8.14-3.37 12-4.16 3.16-7.5 3.52-12.63 3-3.04-1.73-5.26-4.07-7.44-6.81-.9-3.52-.63-6.76.44-10.19 4.3-5.19 8.2-7.33 15-6"/><path fill="#f9eae5" d="M492 210c3.13 1.62 5.24 3 7.38 5.81 1.36 4.76 1.19 8.11-1.13 12.5-3.37 4.03-4.9 4.54-10.12 5.13-4.8-.1-6.85-2.08-10.13-5.44-1.74-3.48-1.59-7.2-1-11 3.5-6.3 8.03-7.95 15-7"/><path fill="#f5f0e6" d="M222 217c3.63 1.65 6.2 3.41 8 7 .67 3.85.9 7.4-1.05 10.88-1.77 2.16-3.44 3.87-5.95 5.12-6.81.68-6.81.68-9.82-1.05-2.84-2.33-4.93-4.2-5.45-7.9-.2-4.3-.16-7.15 2.65-10.55 3.96-3.78 6.17-3.87 11.62-3.5"/><path fill="#e96262" d="M112 348c2.9 1.23 4.4 2.22 6.31 4.69 1.05 3.5 1.34 6.73.69 10.31-1.92 3.41-3.34 5.43-7.12 6.73-4.23.72-6.4.5-10.32-1.42-3.66-3.3-4.43-4.83-4.87-9.75.33-3.8 1-5.57 3.31-8.56 4.04-2.7 7.25-2.54 12-2"/><path fill="#d0b4e8" d="M589 114c2.97 1.78 5.43 3.85 7 7 .5 6.1.06 9.1-4 14-3.46 1.73-7.21 1.48-11 1-3.47-2.07-5.74-4.12-7-8-.52-3.95-.16-5.7 1.75-9.25 3.91-4.78 7.07-5.5 13.25-4.75"/><path fill="#ea6969" d="M494 579c3.02 1.74 5.42 3.83 7 7 .35 5.3.51 8.73-3 13-3.43 2.57-6.84 2.43-11 2-3.11-1.64-5.29-3.03-7.37-5.87-.87-2.94-1-5.08-.63-8.13 3.62-6.5 7.4-9.45 15-8"/><path fill="#ec7471" d="M114 1138c3.12 1.7 5.39 3.78 7 7 .6 5.28-.73 7.89-4 12-4.03 2.68-7.27 2.68-12 2-3.43-2.04-5.92-4.1-7-8 .07-4.72.37-7.03 2.94-11 4.34-2.83 8.02-3.03 13.06-2"/><path fill="#d2b6ea" d="M590 906c2.93 1.8 4.47 2.94 6 6 .4 4.73.45 7.1-1.69 11.38-2.48 2.81-3.66 3.86-7.31 4.62-4.2-.08-6.41-.59-9.87-3-2.8-3.93-3.44-7.21-3.13-12 3.17-7.45 8.66-7.98 16-7"/><path fill="#f6e8f7" d="M559 753a25 25 0 0 1 6.63 9.38l1.22 2.77L568 768l1.13 2.8c1.1 4.04 1.17 7.73 1.12 11.89l-.02 2.41c-.17 9.82-1.73 18.13-6.23 26.9l-1.12 2.35c-2.8 5.5-5.99 8.97-10.88 12.65l-2.31 2c-2.97 2.2-5.73 3.4-9.19 4.69l-3.34 1.26a42 42 0 0 1-13.95 2.18h-10.24c-18.3-.01-18.3-.01-27.03-2.88-6.09-1.57-10.4-1.33-15.94 1.75a93 93 0 0 0-7.77 6.94c-2.23 2.06-2.23 2.06-4.4 3.02-2.65 1.5-2.92 3.18-3.83 6.04l-1.04 2.94-1.02 3.06-1.04 3.06c-1.8 5.88-2.03 11.15-1.96 17.25L449 887c-4.13-6.2-2.7-15.8-2-23 2.58-11.03 8.55-21.52 18-28 8.5-4.9 15.1-5.88 24.81-3.56 5.78 1.28 11.28 2.3 17.19 2.56l2.12.11c15.2.74 29.3-.5 41.77-10.16 5.85-5.4 9.94-11.68 13.11-18.95l1.19-2.62c4.1-11.99 3.84-28.65-1.7-40.04-1.5-2.47-1.5-2.47-3.72-4.96L558 756z"/><path fill="#ccb4dd" d="m517 809 2 2c-1.51 3.78-3.71 5.69-6.87 8.19l-2.62 2.1A15 15 0 0 1 503 824l-2.25 1.44c-3.53 2-6.8 2.69-10.75 3.56v2c13.95 1.83 13.95 1.83 28 2l3.24-.12c11.28-.5 11.28-.5 20.76-5.88h4v-2h3v-3h2v-3h3l1-3 5-1c-8.11 12.25-18.81 17.9-33 21-15.82 1.13-31.42-.75-46.82-4.32-6.52-1.4-12.98-1.92-19.62-2.24l-2.5-.13L452 829c3.63-2.28 6.7-2.25 10.93-2.27l4.16-.07 6.48-.04c14.82-.07 29.22-2.45 40.22-13.4 1.53-1.76 1.53-1.76 3.21-4.22"/><path fill="#abb287" d="M63 757a46 46 0 0 1 12.56 5.94l1.83 1.19c10.82 7.2 25.27 17.26 29.61 29.87l-2 1-1 3h-2c-1.48-1.69-1.48-1.69-3.19-4l-1.91-2.5L95 789c-8.88-11.62-20.99-19.67-34-26z"/><path fill="#ad96bd" d="M453 1097c10.2 4.28 16.7 16.75 21.06 26.33 4.16 10.48 4.83 24.6 1 35.28-4.2 9.54-4.2 9.54-7.06 13.39-2.2.8-2.2.8-4 1 0-4.39.84-6.02 2.88-9.81 5.37-10.04 6.8-20.23 4.43-31.44a66 66 0 0 0-16.45-27.56c-1.84-2.16-2.58-3.39-2.86-6.19z"/><path fill="#c6b1ce" d="M137 528c9.85 4.1 15.13 16.8 19 26 4.9 13.95 3.95 27.32-2.27 40.75A77 77 0 0 1 147 605l-4-2 1.4-2.2c6.72-11.04 10.7-20.74 9.6-33.8l-.18-2.41c-1.6-11.69-8.66-23.12-16.45-31.67L136 531z"/><path fill="#82a8d1" d="M225 96c6.25 1.63 11.45 5.02 16.94 8.31l2.92 1.73c10.75 6.4 10.75 6.4 15.14 9.96 2.55 12.77-5.43 28.5-12 39a137 137 0 0 1-3 4c-4.17-.45-7.82-1.6-11.73-3.05l-3-1.1L228 154l-.06-2.74c-.42-18.48-1.08-36.85-2.94-55.26m2 4 .18 1.96c.66 7.39 1.1 14.78 1.43 22.19.28 5.82.6 11.67 2.01 17.35.55 3.64-.07 6.87-.62 10.5l2.69.88a37 37 0 0 1 5.94 2.37c2.3.97 2.3.97 4.43.19 4.56-3.38 6.29-7.15 7.94-12.44 1.55-2.77 3.24-5.36 5-8a69 69 0 0 0 2-19l-4-1v-2l-3.56-1.75a132 132 0 0 1-8.31-4.5c-2.82-1.91-2.82-1.91-5.13-1.75v-2c-3.73-2.03-5.67-3-10-3"/><path fill="#b794d3" d="M514 726a1774 1774 0 0 1 18.08 9.04c14.98 7.45 28.93 18.02 35.12 34.25 2.69 12.43 2.17 26.88-3.2 38.52l-1 2.21c-1 1.98-1 1.98-3 4.98h-2l1-4h2v-4h2c.1-1.1.1-1.1.18-2.23l.26-2.96.24-2.92c.32-2.89.32-2.89.85-5.16.7-4.09.61-8.15.6-12.3v-7.31A28 28 0 0 0 564 768h-2l-.37-1.75c-.89-3.17-1.9-5.53-4.25-7.87L556 757v-2h-2c-1.55-1.64-1.55-1.64-3.31-3.81A28 28 0 0 0 542 744v-2l-3.37-.31L535 741l-2-3c-2.63-1.45-2.63-1.45-5.62-2.69l-3.04-1.32L522 733l2 10 3-1 1.93 9.79c.8 4.13 1.23 7.97 1.07 12.21h-1l-.81-3.16a123 123 0 0 0-10.42-26.45A73 73 0 0 1 514 726"/><path fill="#bc9fcc" d="M185 457c0 2 0 2-1.98 4.12L180 464c-10.16 9.94-19.6 19.91-28.42 31.05-6.98 8.43-14.62 12.62-24.58 16.95l-2.29 1.27C123 514 123 514 120 513c4.68-2.66 9.36-5.18 14.25-7.44 4.53-2.22 6.74-4.57 9.75-8.56q2-1.02 4-2c1.27-2.03 1.27-2.03 2-4h2v-2h2l.25-1.87c.75-2.13.75-2.13 2.69-3.07 2.32-.93 2.32-.93 3.31-3.69L161 478h2l.81-1.94C165 474 165 474 168 473v-2l3-2c.73-2.56.73-2.56 1-5l-2.01 1.02-2.68 1.36-2.63 1.33A45 45 0 0 1 150 472l-3 1 1-3c2.56-1.2 5.03-2.2 7.68-3.14l2.34-.86q2.44-.9 4.9-1.78 3.76-1.35 7.51-2.75l7.03-2.56c5.3-1.91 5.3-1.91 7.54-1.91"/><path fill="#b4b89a" d="M37 1438c2.93 1.81 5.44 3.87 7 7 .56 4.12.17 5.73-2.06 9.31-3.52 3.22-5.2 3.86-9.94 3.69-5.47-2.94-5.47-2.94-7-6-.58-7.09-.58-7.09 1.88-10.94 3.34-3.24 5.5-3.6 10.12-3.06"/><path fill="#ecbebe" d="M566 343c3 0 3 0 4.65 1.6l1.73 2.15A55 55 0 0 0 581 355v2l1.77.71c2.74 1.58 4.1 3.38 5.98 5.92l1.86 2.47L592 368c-3 0-3 0-5.19-2l-1.81-2v2h-2l-1-3-3-1c-1.72 4.01-3.13 7.65-2.88 12.08.37 6.72-1.23 11.67-3.83 17.84-1.33 3.07-1.33 3.07-2.35 6.3A34 34 0 0 1 566 406l-4-1 1.17-1.8c7.71-12.27 10.88-23.77 9.83-38.2a68 68 0 0 0-5.75-15.5C566 347 566 347 566 343"/><path fill="#f6c836" d="m189 719 2 5-1.83-.1c-18.2-1.4-18.2-1.4-36.17 1.1 1.17 3.5 1.17 3.5 3.45 6.32 2.64 2.86 3.33 6.54 4.49 10.18.92 2.8.92 2.8 4.06 4.5a61 61 0 0 1 2 7l2.7-.91 3.55-1.15 3.52-1.16c3.03-.73 4.39-.9 7.23.22q-3.09 1.3-6.19 2.56l-3.48 1.44c-5.13 1.54-5.13 1.54-8.33 0-2.23-2.56-3.97-5.37-5.75-8.25l-3.16-4.91-1.57-2.47q-3.29-5.07-6.77-10l-2.2-3.16L145 723l1-2c13.9-3.32 28.84-2.2 43-2"/><path fill="#eb7889" d="M284 1377c4.3 2.47 4.3 2.47 6 5 .74 3.14.7 5.85 0 9a14.5 14.5 0 0 1-6 5c-3.87.43-5.52.32-8.81-1.87-2.8-2.72-3.13-3.53-3.5-7.44.36-4.27 1.33-5.71 4.31-8.69 2.9-1.45 4.77-1.37 8-1"/><path fill="#fcefc3" d="M381 203h5v2h2l.81 2.32a112 112 0 0 0 9.69 20.39c1.88 3.27 2.5 5.25 2.41 9.06-.9 3.16-1.21 4.2-3.85 5.98-3.2 2.08-3.2 2.08-5.06 5.25h-2c1.44-3.24 3.26-5.62 5.63-8.25l1.9-2.14q.74-.79 1.47-1.61l-5.43-11.5a383 383 0 0 0-7.8-15.69C385 207 385 207 385 204h-2l-.64 2.01c-1.84 4.04-4.4 7.3-7.11 10.8l-1.55 2.04-1.56 2.04-1.55 2.06a90 90 0 0 1-3.35 4.06c-2.92 3.45-4.2 5.16-4.43 9.78 1.2 5.47 3.83 10.5 6.25 15.52q1.4 2.92 2.79 5.87l1.25 2.59c.9 2.23.9 2.23.9 5.23h2l.75-1.75c1.42-2.55 3.13-4.27 5.25-6.25-.65 3.49-2.1 6.03-4 9l-7-1-.95-2.5L366 253l-1.15-2.98-1.04-2.65-.92-2.35c-.93-2.26-.93-2.26-2.89-5.02-.4-3.42-.56-6.87 1-10h2l1-3h2l.88-2.94C368 221 368 221 370 220l1-3 2-1c1.05-1.85 1.05-1.85 2-4 1.78-3.89 1.78-3.89 4-5 1.13-2.02 1.13-2.02 2-4"/><path fill="#f8c141" d="M110 1337c3.06 2.06 3.06 2.06 5 5 .83 4.54.33 6.44-2 10.44-3.53 3.01-3.53 3.01-7 3.25-3.15-.28-4.22-.83-7-2.63-2.68-4.1-2.93-7.28-2-12.06 2.84-5.06 7.75-5.06 13-4"/><path fill="#efd594" d="M627 700c3.44.57 6.16 1.42 9.22 3.07l2.39 1.28 2.45 1.34 4.79 2.57 2.47 1.38a25 25 0 0 0 5.88 2.51c3.4 1.32 5.98 2.52 8.8 4.85 2.03 4.8 2.4 9.6 2.75 14.75l.41 4c.7 7.09 1.03 14.13.84 21.25l-5-2 3-1a488 488 0 0 0-2.98-22.45c-.67-4.56-1.2-8.92-1.02-13.55l-7-2v-2l-3.75-1.19c-5-1.65-9.81-3.66-14.65-5.72-2.64-1.14-2.64-1.14-5.6-2.09a28 28 0 0 0-2.56 10.13l-.22 2.87-.22 3-.82 8.98L626 732l1.86.41c2.59.71 4.15 1.8 6.14 3.59v2c-4.15-1.47-7.68-3.07-11-6-.6-6.95.79-13.67 2-20.5l.58-3.36z"/><path fill="#ec5f64" d="M226 632.44c3.66.68 5.35 1.99 8 4.56 1.59 3.18 1.42 5.5 1 9-2.88 3.22-4.8 4.76-9.06 5.63-4.1-.88-5.53-2.22-7.94-5.63a15.5 15.5 0 0 1 0-8c2.44-3.45 3.83-4.78 8-5.56"/><path fill="#eccc6e" d="M383 204h2l5.25 10.94 1.49 3.1A579 579 0 0 1 400 236l-8 9c0-3 0-3 2.06-5.31 2.22-2.5 2.22-2.5 1.84-5.32-1.17-4.39-3.18-8-5.4-11.93-5-8.9-5-8.9-5.5-13.44l-3-1-.75 1.67a58 58 0 0 1-5.19 7.64c-2.31 3.13-4.4 6-5.81 9.63A15.3 15.3 0 0 1 365 234h-2q1.83 4.76 3.69 9.5l1.03 2.69A78 78 0 0 0 376 262a54 54 0 0 0 5.44-7.5c1.83-2.94 4.05-5.13 6.56-7.5l2 1-6.44 7.88-1.85 2.26-1.77 2.16-1.63 2c-1.38 1.68-1.38 1.68-2.31 3.7h-2a2161 2161 0 0 1-6.87-15.66q-1.27-2.86-2.5-5.73l-1.53-3.47c-1.06-3.02-1.49-4.98-1.1-8.14 1.8-2.77 1.8-2.77 4.31-5.81a226 226 0 0 0 13.1-18.16q1.74-2.56 3.59-5.03"/><path fill="#85acd4" d="m257 905 3 1c1.13 15.78-5.26 31.74-15 44l-4.56-1.31-2.57-.74c-3.36-1.11-6.61-2.55-9.87-3.95v-25h1v5h3l.06 4.31.04 2.43C232 933 232 933 231 936q.9 3.53 2 7l2.19-.06c2.81.06 2.81.06 5.37.81 2.6.56 2.6.56 4.69-1.56 1.77-2.06 1.77-2.06 2.75-4.19h2l1-8h2l.38-2.37C254 925 254 925 256 923c1.27-5.96 1.1-11.93 1-18"/><path fill="#d3ceaf" d="m29 1092 8 4c-.6 4.14-2 7.18-4.06 10.81l-1.66 2.96L30 1112a205 205 0 0 1-15-2 29 29 0 0 1 5.31-7.87q4.45-4.98 8.69-10.13"/><path fill="#f9cc4b" d="M323 950.44c3.8.71 5.41 1.68 8 4.56 1.26 4.08 1.44 6.05-.37 9.94-3.3 2.59-5.38 2.79-9.5 2.54-2.13-.48-2.13-.48-4.7-2.6-1.7-3.41-2.13-5.13-1.43-8.88 2.46-3.33 3.9-4.8 8-5.56"/><path fill="#e2f1fa" d="m282 378 2 1c1.32 4.36 1.13 8.85 1.1 13.36l-.05 15.09L285 420h-2c-1.21-13.33-1.1-26.63-1-40l-2.75.8-3.69 1.07-3.62 1.06c-4.27 1.2-8.6 2.15-12.94 3.07l1.01 2.7 5.29 14.26 2.3 6.18.72 1.95c1.03 2.8 1.68 4.9 1.68 7.91l2.08.15 2.73.23 2.71.2C280 420 280 420 283 422q-3.15-.05-6.31-.19l-3.55-.1c-3.14-.71-3.14-.71-4.71-2.93-2.32-4.51-3.9-9.24-5.56-14.03l-1.08-3.03A65 65 0 0 1 258 384l2.92-.8 3.83-1.07 3.8-1.06c10.52-3.26 10.52-3.26 13.45-3.07"/><path fill="#f9c94a" d="M325.02 160.55c3.57.8 5.01 2.47 6.98 5.45.15 4.31-.3 6.21-3.19 9.44-3.33 1.85-5.05 2.2-8.81 1.56-3.3-2.68-4.85-4.62-5.31-8.87.31-3.13.31-3.13 1.81-5.5 2.87-1.87 5.1-2.27 8.52-2.08"/><path fill="#bba2cd" d="m496 1027-1.69 1.84A312 312 0 0 0 479 1047l-1.63 2.08-5.56 7.1-1.8 2.31A348 348 0 0 0 460 1072l-3-1h2l.31-2.31c.74-2.87 1.36-3.92 3.69-5.69h2l.25-2.37.75-2.63 1.94-.94c2.37-.93 2.37-.93 3.12-3.87l.94-3.19c1.31-2.75 1.31-2.75 3-5l2.37-.79c3.48-1.6 4.5-3.56 6.44-6.84l1.83-3.03L487 1032l-2.5 1.31a75 75 0 0 1-7.81 3.25c-3.74.99-3.74.99-4.69 3.44-4.22 1.15-8.66 1.49-13 2 2.67-3.27 6.17-4.59 9.97-6.17l2.05-.87 4.29-1.8q3.28-1.36 6.55-2.77l4.17-1.75 1.98-.85c4.65-1.9 4.65-1.9 7.99-.79"/><path fill="#699bcf" d="M651 534c2.32 3.48 2.74 6.09 3.5 10.19a164 164 0 0 0 2.69 12.43c.72 3 .88 5.33.81 8.38-6.71 3.55-13.61 7.1-21 9l-3-1 1.94-.87c2.21-.96 2.21-.96 3.06-3.13q3.15-1.34 6.38-2.5c3.55-1.3 6.47-2.4 9.62-4.5l-.62-1.58c-2.24-6.13-3.03-11.92-3.38-18.42h-3l-1 2-6-1-1 3-5 1v2h-5c3.55-2.93 7.21-5.54 11.06-8.06 3.4-2.23 6.73-4.47 9.94-6.94"/><path fill="#cdb8db" d="m402 862 2 3-.87 1.57c-2.9 5.4-2.9 5.4-3.13 11.43h-2v5l6 3 1-2v4h6v2l1.7.4c2.4.62 4.71 1.37 7.05 2.16l2.42.82 1.83.62v2l2.81-.56C430 895 430 895 433 896l3.44-.56c3.7-.46 4.5-.2 7.56 1.56l3-1q.06-2.5 0-5l-1-1q-.06-3 0-6h2l.8 2.27 1.07 2.98 1.06 2.95c.9 2.37 1.92 4.55 3.07 6.8-22.27.6-39.77-3.67-59-15 .46-8.02 3.43-14.86 7-22"/><path fill="#f5c659" d="M469.1 717.55c1.9.45 1.9.45 4.4 2.58 1.76 3.36 2.14 5.13 1.5 8.87-2.17 3.2-3.72 3.91-7.44 5.06-3.56-.06-3.56-.06-6.5-2.06-2.55-3.72-2.78-5.57-2.06-10 2.56-4.16 5.48-4.7 10.1-4.45"/><path fill="#f9eae5" d="M251 0h23c-1.2 7.17-1.2 7.17-5.12 10.08-3.6 1.77-7 1.78-10.88.92-2.79-1.37-3.88-2.56-6-5z"/><path fill="#6994be" d="M656 840c3.8-.55 7.22-.74 11 0 5.86 4.81 8.32 13.87 10 21 .26 2.78.21 5.2 0 8q-2.1 1.34-4.25 2.63l-2.4 1.47c-2.35.9-2.35.9-4.4.32a33 33 0 0 1-5.89-5.8c-4.68-5.35-9.78-10.1-15.04-14.86-2.77-2.5-5.4-5.1-8.02-7.76l6.25-2.06 3.52-1.16c3.03-.73 4.39-.9 7.23.22l-5.86 2.15c-2.11.84-4.12 1.8-6.14 2.85q2.83 2.7 5.69 5.38l1.6 1.53c3.07 2.86 5.62 4.83 9.71 6.09v2l1.88.69c2.74 1.7 2.99 3.36 4.12 6.31 3.29 1.1 4.71.8 8 0 .33-10.19.33-10.19-2-20h-2l-3-7-10-1z"/><path fill="#a081b4" d="M102 524a44 44 0 0 1 5.88 4.63l1.56 1.35q2.29 2 4.56 4.02l4.75 4.13q1.63 1.42 3.25 2.87c-3.75 1.07-3.75 1.07-6 .44-2.77-2-4.14-4.6-6-7.44-2.63-2.45-2.63-2.45-6-3v-2l-3-1c-1.69-1.56-1.69-1.56-3-3l-5 5v-3l-1.9.88-2.47 1.12-2.47 1.13C84 531 84 531 82 531l-1 5-2.19.19c-3.7 1.07-5.34 2.92-7.81 5.81v2l-2 2q-1.08 2.97-2 6h2l-1 4c-2.99-4.1-3.7-6.95-3-12 5.12-10.44 18.05-15.21 28.03-20.07 3.58-1.12 5.39-1.06 8.97.07"/><path fill="#e1f1fa" d="M667 47c6.06 3.79 8.53 11.64 11.31 18 1 4.34.85 8.57.69 13l-3 1v2a18 18 0 0 1-7.24 3.5c-4.45-.8-6.7-3.96-9.7-7.19l-3.59-3.76-1.74-1.83a63 63 0 0 0-5.17-4.55L646 65v-2l-2.19-.75A24 24 0 0 1 636 57c-.31-2.75-.31-2.75 0-5a35 35 0 0 1 14.08-3.79c13.9-1.53 13.9-1.53 16.92-1.21m-14.94 2.31-2.05.36A53 53 0 0 0 637 54a282 282 0 0 0 11.06 10.56A508 508 0 0 1 667 83q1.14-.45 2.32-.94 2.73-1.08 5.5-2.06c2.33-1.75 2.33-1.75 2.63-4.03.45-10.13-3.58-18.42-9.47-26.39-4.42-3.53-10.75-1.25-15.92-.27"/><path fill="#cc979b" d="M266 770c3.7 2.03 5.65 3.48 8 7 .6 4.19.42 7.93-1.12 11.88-2.82 3.18-5.54 4.96-9.87 5.25-4.05-.26-5.74-.9-8.95-3.57-3.15-3.92-3.4-6.38-3.35-11.3.43-3.37 1.82-5 4.29-7.26 3.49-2.52 6.8-2.43 11-2m-12 8c-.66 4.13-.44 6.2 1.56 9.88 3.26 2.83 5.14 3.27 9.44 3.12 3.29-1.85 5.46-3.2 6.58-6.94.19-2.26.08-3.89-.58-6.06-2.88-3.29-4.77-4.75-9.06-5.62-4.07.86-5.52 2.27-7.94 5.62"/><path fill="#8db0d8" d="m416 361-1 31a640 640 0 0 1-24.44 5.69l-3.18.68-5.8 1.22c-2.57.4-4.98.48-7.58.41 4.3-2.86 8.82-3.51 13.81-4.62l2.99-.7c4.8-1.08 9.24-2 14.2-1.68v-2l7-2q.09-4.9.13-9.81l.05-2.82.02-2.7.03-2.5c-.09-2.46-.09-2.46-2.23-5.17l-1.5.5c-3.53.7-6.9.56-10.5.5 3.02-2.01 5.57-3 9-4.12l3.19-1.08c2.81-.8 2.81-.8 5.81-.8"/><path fill="#dca3a5" d="M600 384c2.58 2.24 3.4 3.66 4 7 .95 13.9-.89 25.9-10 37-8.08 9.02-16.91 16.86-29.4 18.27q-3.6.14-7.23.04l-2.44.01c-5-.04-9.19-.72-13.93-2.32v-3l3.13.94c11.76 3.32 21.28 2.39 32.43-2.5 2.55-1.2 2.55-1.2 3.44-3.44 2.56-.62 2.56-.62 5-1v-2c1.88-2.12 1.88-2.12 4-4h2l.75-2.19c1.25-2.81 1.25-2.81 3.31-5.37 1.83-2.3 2.52-3.6 2.94-6.44h2c1.74-9.22 2.29-17.31.47-26.57C600 386 600 386 600 384"/><path fill="#bcbfa4" d="M16 345c3.21 1.64 5.25 2.97 7.38 5.88 1.3 4.43 1.11 7.2-1.07 11.3-3.31 4.04-5.56 5.57-10.75 6.32-4.78-.67-6.2-2.07-9.56-5.5-2.31-3.26-2.47-6.06-2-10 4.06-7.28 7.97-9.12 16-8m-11 5.13c-2.18 2.71-2.18 2.71-2.56 5.87.68 3.66 1.99 5.35 4.56 8 2.85 1.43 4.83 1.31 8 1 3.75-2.08 4.8-3.3 6-7.44 0-3.93-.58-5.51-3-8.56-4.72-2.36-8.9-1.78-13 1.13"/><path fill="#c3c1a5" d="M675.43 340.43c3.72.82 5.4 2.52 7.57 5.57 1.6 3.2 1.36 6.52 1 10-1.42 3.54-2.6 4.74-5.81 6.81-4.47 1.67-7.45 1.92-11.88.06-3.9-3.16-5.07-6.42-5.87-11.3.65-4.13 1.67-6.24 4.51-9.24 3.4-2.2 6.52-2.15 10.48-1.9m-10 5.13c-2 3.41-1.98 5.54-1.43 9.44 1.4 2.99 1.4 2.99 4 5 4 1.17 6.05 1.43 9.88-.31 2.21-1.52 2.21-1.52 3.12-3.69.51-5.52.51-5.52-1.44-10.5-4.6-2.7-9.56-2.72-14.12.06"/><path fill="#ddd5c6" d="M287.75 1260.19c3.76 3.02 5.08 5.45 5.69 10.25-.52 4.22-1.77 6.28-4.44 9.56-4.02 2.68-7.27 2.81-12 2-3.07-1.71-5.4-3.81-7-7-.54-4.54-.62-7.95 1.75-11.94 4.84-4.44 9.72-5.59 16-2.87M273 1267c-.83 3.5-.83 3.5 0 7 2.6 3.7 4.04 4.83 8.5 5.63 4.46-.8 5.9-1.94 8.5-5.63.83-3.5.83-3.5 0-7-2.6-3.7-4.04-4.83-8.5-5.62-4.46.8-5.9 1.93-8.5 5.62"/><path fill="#dfd5c6" d="M226 1006c3.22 1.81 4.54 3.17 6.31 6.38 1.1 4.21 1.28 7.28-.5 11.3-3.18 4.06-5.63 5.17-10.75 5.82-4.72-.16-6.83-2.19-10.06-5.5-1.72-3.45-1.37-7.22-1-11 3.32-7.43 8.57-7.96 16-7m-11.56 4.44c-2.15 3.83-2.2 7.27-1.44 11.56 1.38 2.71 1.38 2.71 4 4 4.26.62 6.24.5 9.88-1.87 2.5-2.52 3.04-3.42 3.43-6.94-.4-4.1-1.13-5.55-4.31-8.19-4.27-.9-7.74-.7-11.56 1.44"/><path fill="#f8eaf9" d="M526 753c5.72 8.57 4 23.38 2.7 33.27A48 48 0 0 1 525 797l-1.32 2.9c-6.32 12.6-15.17 20.47-28.3 25.48-10.1 2.94-20.98 1.95-31.38 1.62v-1l1.84-.04c15.83-.39 15.83-.39 31.16-3.96q2.5-.55 5-1v-2c6.75-4 6.75-4 9-4l.19-1.69c.81-2.31.81-2.31 3.13-4.52 2.94-3.06 4.52-5.91 6.37-9.73l1.76-3.59a47 47 0 0 0 4.24-18.22l.12-2.41c.27-6.43.3-12.79-1.41-19.04l-.4-1.8z"/><path fill="#bdc2a0" d="M0 1218c10.07 4.2 17.53 15.5 22 25v2l-5 2-1.21-2.05A106 106 0 0 0 0 1225q-.06-3.5 0-7"/><path fill="#dbd2c1" d="M662.25 1086.75c3.12 2.23 4.48 4.61 5.1 8.4.27 4.34.11 6.25-2.6 9.79-4.45 3.34-7.06 4.64-12.75 4.06-4.13-1.82-6.24-3.83-8-8-.83-6.5-.83-6.5.98-9.78 5.2-6.56 9.44-7.08 17.27-4.47m-12.69 3.19c-2.81 3.36-3.48 4.86-3.15 9.12 1.11 3.67 3.41 5.06 6.59 6.94 3.04.83 3.04.83 6 0 2.87-2 4.65-3.47 5.45-6.97.18-3.37-.2-5.63-2.01-8.47-4.74-3.03-7.95-3.4-12.88-.62"/><path fill="#efd386" d="M507 629c3.31 1.44 5.44 3.22 7.94 5.81l2.1 2.15L519 639l2.88 2.88C526 646 526 646 526.02 647.8c-1.58 3.4-4.4 5.26-7.33 7.45l-1.77 1.4c-3.32 2.52-4.62 3.35-8.92 3.35-2.44-1.86-2.44-1.86-5-4.31a85 85 0 0 0-9-7.69c.6-3.08 1.51-4.98 3.47-7.42l1.48-1.86 1.55-1.9 1.55-1.95c3.69-4.61 3.69-4.61 4.95-5.87m0 3-4 6q-2.44 2.56-5 5c-1.23 1.04-1.23 1.04-1.44 3.25.55 3.45 2.05 4.68 4.78 6.75 2.14 1.29 4.2 1.65 6.66 2l1 2c1.95-.2 1.95-.2 4-1l1-2 1-2c1.94-.56 1.94-.56 4-1 1.88-1.2 1.88-1.2 3-3 .08-2.11.08-2.11-1-4-1.98-1.28-1.98-1.28-4-2v-2h-2l-.19-1.75c-1.14-3.17-3.07-4.38-5.81-6.25z"/><path fill="#fcf0cd" d="M506 627c3.12.25 4.64.66 6.95 2.81l1.74 2.19c2.28 2.96 2.28 2.96 5.31 5v2h2c2.13 2.04 3.6 3.48 5 6 .06 3.69.06 3.69-1 7-1.94 1.94-1.94 1.94-4 3h-2l-1.31 1.81A15.3 15.3 0 0 1 512 662c-6.37-.47-9.68-3.58-14-8l-3.37-2.37C492 649 492 649 491.8 645.5c1.4-4.14 2.98-5.57 6.19-8.5a276 276 0 0 0 5.55-7.1C505 628 505 628 506 627m1 2a105 105 0 0 0-4.37 5.19l-2.34 2.92L498 640l-2.35 2.61c-1.9 2.18-1.9 2.18-1.43 4.36 1.33 3.46 4.31 5.48 7.1 7.78l1.76 1.54c3.3 2.77 4.47 3.71 8.92 3.71 1.8-.98 1.8-.98 3.45-2.4l1.88-1.51 1.92-1.59 1.97-1.59q2.4-1.95 4.78-3.91c-.84-4.32-2.53-5.28-6-8q-2.74-3-5.36-6.1A61 61 0 0 0 509 629z"/><path fill="#dfd6c7" d="M263 519c3.33 2.06 6.24 4.47 8 8 .13 4.86-.32 8.14-3.37 12-4.16 3.16-7.5 3.52-12.63 3-3.04-1.73-5.26-4.07-7.44-6.81-.9-3.52-.63-6.76.44-10.19 4.3-5.19 8.2-7.33 15-6m-13 8c-.9 4.2-.19 5.7 2.06 9.38 2.74 2.93 2.74 2.93 6.5 3.12 3.06-.44 4.94-.74 7.44-2.5 2.5-3.75 2.54-5.56 2-10-1.99-2.92-3.43-4.61-6.94-5.48-5.27-.37-7.96 1.03-11.06 5.48"/><path fill="#bb8ee9" d="M607 1441a69 69 0 0 1 13.19 5.69l1.96 1.06c5.78 3.14 11.5 6.42 16.85 10.25v1c-15.89 1.68-15.89 1.68-20.77-2.2a85 85 0 0 1-5.23-8.8 83 83 0 0 0-3.5-4.19z"/><path fill="#b9be9c" d="M71 841h1c.87 22.36-5.45 39.27-15.52 59.06-2 3.93-3.96 7.8-5.48 11.94l-2-2c.24-2.7.59-5.32 1-8a441 441 0 0 0 .8-7.46l.26-2.54.28-2.64L52 883h1l1 12 3 1 .75-2.31c1.37-4.06 2.84-8.07 4.31-12.1q1.02-2.81 1.94-5.65c1-2.94 1-2.94 1.93-5 2.88-6.54 3.87-12.48 4.32-19.57l.23-3.04q.29-3.66.52-7.33"/><path fill="#7099c0" d="M282 380c1.2 26.75 1.2 26.75 1 40l-3.69.06-2.07.04-2.24-.1-2.46-.1c-2.54-.9-2.54-.9-4.12-3.72l-1.31-3.73-.72-2q-1.13-3.15-2.2-6.32l-1.52-4.25C259 389.55 259 389.55 259 386c17.14-6 17.14-6 23-6m-8 3v2l-2.12.15-2.75.23-2.75.2c-2.56.22-2.56.22-4.38 2.42.41 4.66.41 4.66 2 9h2l.08 1.84c.32 4.69.96 9.16 2.36 13.66l.74 2.47c3.05 3.41 7.43 3.45 11.82 4.03l.08-19.97.02-7.28.01-2.3q-.01-2.73-.11-5.45c-1.13-1.36-1.13-1.36-4.06-1.06z"/><path fill="#c78c8d" d="M492 210c3.13 1.62 5.24 3 7.38 5.81 1.36 4.76 1.19 8.11-1.13 12.5-3.37 4.03-4.9 4.54-10.12 5.13-4.8-.1-6.85-2.08-10.13-5.44-1.74-3.48-1.59-7.2-1-11 3.5-6.3 8.03-7.95 15-7m-13 9c-.07 3.95.43 6.12 2.56 9.44 2.84 1.82 5.1 2.2 8.47 2 3.54-.8 4.97-2.5 6.97-5.44.79-4.41.53-6.22-2-9.94-3.32-2.28-5.1-2.88-9.06-2.6-3.76 1.05-5.1 3.26-6.94 6.54"/><path fill="#a58ab4" d="m453 1163 2 1c-12.75 16.98-22.88 29.55-45 33q-3.78.17-7.56.19l-3.94.04c-3.19-.2-4.86-.53-7.5-2.23l2.52-.18 3.3-.26 3.26-.24c2.98-.22 2.98-.22 5.92-1.32v2l1.62-.59c4.98-1.74 9.88-2.97 15.07-3.94A57 57 0 0 0 431 1188v-2l1.94-.31 2.06-.69 1-3h3l2-6h2v-2h2v-2l2-1 1.44-2.94C450 1165 450 1165 453 1163"/><path fill="#efd597" d="M332 1303c5.33 1.96 10.23 4.68 15.19 7.44 3.6 1.97 6.99 3.71 10.93 4.86 4.28 1.44 6.72 2.43 9.88 5.7 3.25 9.4 3.17 20.14 3 30-2.64-2.64-2.28-3.96-2.4-7.64-.06-11.6-.06-11.6-3.86-22.19-3.4-2.88-7.53-3.96-11.74-5.17a93 93 0 0 1-4.94-2.81c-4.51-2.52-9.06-3.95-14.06-5.19a930 930 0 0 0-2.06 9.94l-.6 2.8A45 45 0 0 0 331 1338l-3-1c-.17-7.11.47-13.9 1.44-20.94l.4-3.15c1.02-7.64 1.02-7.64 2.16-9.91"/><path fill="#e2f0f9" d="M652 534h2c2.86 10.94 2.86 10.94 3.5 15.69a37 37 0 0 0 2.19 7.93c1.06 3.04 1.37 4.1.68 7.32C659 567 659 567 656 569h-4v2l-3.7 1.2-4.86 1.61-2.43.8c-4.78 1.58-9.38 3.4-14.01 5.39-2.7.99-5.44 1.88-8.19 2.75l-2.11.7c-3.68 1.18-6.03 1.7-9.7.55q7.17-2.73 14.41-5.27c18.02-6.3 18.02-6.3 35.59-13.73-.42-7.22-1.58-14-3.3-21.03A87 87 0 0 1 652 534"/><path fill="#dfeff9" d="m412 359 4 2-21.48 7q-14.6 4.75-29.22 9.43l-2.45.79C357.23 380 357.23 380 355 380l.91 3.8 1.15 4.95.6 2.5.56 2.42.53 2.22c.27 2.31-.05 3.9-.75 6.11-2.15-4.98-2.15-4.98-3-7l-1.1-2.37c-1.02-2.98-1.1-5.3-1.02-8.44l.05-2.96.07-2.23c6.17-3.23 11.92-5.64 18.81-6.87 4.42-.83 8.06-2.33 12.1-4.25 2.96-1.25 5.91-1.52 9.09-1.88q3-.96 6-2l3.18-1.04 3.13-1.02 3.18-1.04c2.42-.67 2.42-.67 3.51-1.9"/><path fill="#fceec0" d="m380 994 3 1-7 10.03a131 131 0 0 1-8.13 10.68l-1.44 1.7q-1.96 2.25-3.96 4.47c-1.62 3.44-1.6 3.88-.52 7.31q.98 2.43 2.05 4.81l1.12 2.66q2.4 5.6 4.92 11.14l1.2 2.73 1.1 2.46c.66 2.01.66 2.01-.34 4.01-2.6-2.3-3.7-4.32-4.87-7.56a126 126 0 0 0-6.08-13.31A21.7 21.7 0 0 1 359 1022a31 31 0 0 1 6-8h2v-3h2l.25-1.75c.96-2.88 2.61-4.11 4.75-6.25q1.53-3 3-6c1.69-1.87 1.69-1.87 3-3"/><path fill="#d08f91" d="m478 415 2 2-3.19.44-3.81.56-2.69.38c-2.7.73-4.11 1.9-6.31 3.62l-1.96 1.46-4.08 3.08a131 131 0 0 1-4.71 3.33c-3.09 2.92-4.57 6.27-6.25 10.13h-2l-.37 1.69C444 444 444 444 443 446.13c-1.24 3.55-1.48 6.92-1.75 10.66C441 459 441 459 440 461q-.34 3.56-.56 7.13L439 475c-3.9-6.58-2.44-14.97-.81-22.12 3.94-13.93 12.29-26.65 24.49-34.61 5.4-2.96 9.22-3.67 15.32-3.27"/><path fill="#a4ae81" d="M63 757c4.99 1.42 8.9 3.57 13.19 6.38l1.86 1.17c3.28 2.11 6.02 4.01 7.95 7.45-.31 2.75-.31 2.75-1 5-4.5-2.08-8.56-4.91-12.7-7.63A96 96 0 0 0 61 763z"/><path fill="#dcd3c4" d="M222 217c3.63 1.65 6.2 3.41 8 7 .67 3.85.9 7.4-1.05 10.88-1.77 2.16-3.44 3.87-5.95 5.12-6.81.68-6.81.68-9.82-1.05-2.84-2.33-4.93-4.2-5.45-7.9-.2-4.3-.16-7.15 2.65-10.55 3.96-3.78 6.17-3.87 11.62-3.5m-9.44 4.56c-2.13 3.32-2.63 5.49-2.56 9.44 1.85 3.28 3.18 5.49 6.94 6.55 3.95.27 5.74-.33 9.06-2.61 2.53-3.72 2.79-5.53 2-9.94-2-2.93-3.43-4.65-6.97-5.45-3.37-.18-5.63.2-8.47 2.01"/><path fill="#f6c534" d="M222.41 1454.83h2.21l4.64-.02q3.5 0 7.01-.03c14.6-.06 14.6-.06 21.73 2.22l1 2h-46l-1-3c3.53-1.18 6.74-1.16 10.41-1.17"/><path fill="#96b5da" d="m618 555 3 2a42 42 0 0 1-12 6c-1.98 1.23-1.98 1.23-3 3 .33 2.06.33 2.06 1 4l-1 2 2 1-.5 1.75c-.64 2.52-.64 2.52-.5 6.25l6.38-1.87 3.58-1.06c3.1-.85 3.1-.85 5.04-3.07 4.31-1.27 8.55-1.08 13-1a32 32 0 0 1-8.44 3.95l-3.2 1.07-3.36 1.1-3.35 1.13-6.15 2.05c-2.5.7-2.5.7-5.5.7l-1-6.5-.56-3.66c-.46-4.01-.51-7.8-.44-11.84a644 644 0 0 1 7.31-3.62l2.1-1.07c2.02-.97 2.02-.97 5.59-2.31"/><path fill="#c9b2d4" d="M453 1097c9.46 3.97 15.73 15.17 20 24 1.21 3.3 2.2 6.58 3 10l-4-1-1 2-.63-1.98c-3.6-10.66-8.3-19.93-16.96-27.3L452 1101c.28-2.22.28-2.22 1-4"/><path fill="#dfeff8" d="M416 362h1c.8 8.14 1.3 16.16.44 24.31l-.38 3.68C416 393 416 393 413.68 394.76c-5.25 1.77-10.55 2.8-16 3.8l-6.54 1.26-3.16.6c-4.01.78-8 1.67-11.98 2.58-5.04 1.05-9.87 1.1-15 1a30 30 0 0 1 8.83-3.15l2.89-.6 3.1-.63 3.2-.67 6.68-1.37 16.75-3.46 3.1-.65 2.88-.58 2.53-.52C413 392 413 392 415 392l-.02-1.68c-.16-19.5-.16-19.5 1.02-28.32"/><path fill="#f6e9f6" d="M453 816v1l-2.57.26c-17.04 2.04-31.4 8.15-44.43 19.3l-1.96 1.68A36 36 0 0 0 396 848h-2l-.81 2.13c-1.26 3.04-2.7 5.93-4.19 8.87l-2.19 4.38L385 867h-2c3.36-12.06 10.31-21.15 19-30l2.01-2.09c9.1-8.77 20.42-14.58 32.49-18.03l2.2-.65c5.11-1.32 9.11-1.15 14.3-.23"/><path fill="#f8ebf9" d="M459 826c-3.19 2.12-5.5 2.72-9.19 3.63-19.16 5.34-36.74 16.39-47.24 33.53-3.3 5.97-5.52 12.34-7.57 18.84-2.01-5.56.87-10.82 3-16a70 70 0 0 1 12-17h2v-2c4.47-4 4.47-4 7-4l1-3c2.92-2.08 4.38-3 8-3v-2a163 163 0 0 1 16.63-6.75l3.72-1.3A33 33 0 0 1 459 826"/><path fill="#f6e9f5" d="m442 39-3.11 1.1c-16.7 6.01-28.78 13.45-40.3 27.25L397 69h-2l-.78 2.05a143 143 0 0 1-4.78 10.08c-2.47 4.82-2.47 4.82-4.44 9.87h-2c5.55-18.68 16.88-34.78 34.07-44.36 18.43-9.7 18.43-9.7 24.93-7.64"/><path fill="#bfc2a8" d="M12 1129c3.5 2.05 5.74 4.1 7 8 .5 3.9.17 5.68-1.69 9.19-2.37 2.88-3.88 4.37-7.31 5.81-4.41.38-6.27.48-10-2l1-4 3 2c3.2.34 5.38.25 8.38-.94 2.28-2.9 2.06-5.3 2.05-8.9-.53-2.67-1.23-3.58-3.43-5.16-1.95-.4-1.95-.4-4-.25l-2.06.05c-2.16.15-2.16.15-4.94 1.2v-4c3.7-1.85 7.96-1.46 12-1"/><path fill="#a384b9" d="m406 1098 2 1-1.48 1.02-6.7 4.67-2.34 1.6c-7.39 4.78-7.39 4.78-12.26 11.77-.34 4.1-.52 7.33 1.78 10.94 1.9.6 1.9.6 4 1l4 4h3v3l2.94.38 3.06.62 1 2c-7.89-.42-15.3-5.83-21-11-2.02-3.03-2.32-3.85-2.37-7.31l-.1-2.24c1.09-5.73 4.96-9.17 9.5-12.39q.91-.6 1.85-1.25l1.81-1.28A62 62 0 0 1 406 1098"/><path fill="#f7e9f8" d="M504 44c-9.97 4.13-19.26 4.54-29.86 4.5-13.26-.03-25.2 2.23-37.39 7.75l-2 .88C428.6 59.98 423.32 63.78 418 68l-3 2c.69-2.37.69-2.37 2-5 2.63-1.31 2.63-1.31 5-2v-2c17.83-10 17.83-10 24-10v-2c10.04-2.06 19.95-2.36 30.16-2.46 7.9-.08 15.15-.45 22.7-3C501 43 501 43 504 44"/><path fill="#d17983" d="M169 1347c-6.88 5.33-14.65 4.8-23 5l1.94 3.31A33 33 0 0 1 151 1362h2a35 35 0 0 1 3.13 3.88l1.63 2.17C159 1370 159 1370 159 1372h14c-3.74 2.5-6.56 3.32-11.03 3.66-5.85-1.3-8.68-6.98-11.74-11.75a165 165 0 0 0-3.85-5.67A593 593 0 0 1 140 1349c3.82-1.9 8.85-.99 13.08-.87 3.85.05 7.19-.06 10.88-1.2 3.04-.93 3.04-.93 5.04.07"/><path fill="#f3f1e2" d="M35.06 1441.06c4.53 1.45 4.53 1.45 5.94 3.94-.33 6.33-.33 6.33-3 9-6.05.55-6.05.55-8.94-1.12-1.59-2.82-1.51-4.7-1.06-7.88 2.18-3.27 3.08-4.02 7.06-3.94"/><path fill="#ebbcbd" d="M466.06 1268c2.94 1 2.94 1 4.88 2.69 1.45 3.15.99 5.02.06 8.31-2 2-2 2-5.44 2.31-3.56-.31-3.56-.31-5.5-1.43-1.59-2.82-1.51-4.7-1.06-7.88 2.18-3.26 3.1-4 7.06-4"/><path fill="#bbc09d" d="m125 59 2 4h2l1-3 2 1 .06 9.81.03 2.82v2.7l.02 2.5C132 81 132 81 131 84l-5-1z"/><path fill="#ecce74" d="M383 994c3.23 1.62 3.92 5.05 5.25 8.25l1.86 4.38.95 2.22q1.32 3.01 2.77 5.96l1.67 3.44 1.53 3.08c1.04 2.87 1.25 3.93-.03 6.67-1.84 1.93-3.87 3.37-6 5l.5-2.06c.96-5.64.85-9.77-1.64-14.98-1.37-3.12-2.22-6.38-3.16-9.65A66 66 0 0 0 384 999h-2c-1.55 1.68-1.55 1.68-3.06 3.81l-1.6 2.15c-1.5 2.1-1.5 2.1-2.34 5.04l-3 1c1.47-4.36 3.83-7.72 6.63-11.31l1.27-1.67z"/><path fill="#e1eff9" d="m646 536 2 1c-6.81 5.42-14 9.88-21.56 14.19l-2.65 1.5C607.29 562 607.29 562 603 562l1 16c-2.86-2.86-2.4-5.15-2.62-9.12l-.23-3.89L601 562c5.1-3.43 10.32-6.21 15.88-8.81l2.01-.95c4.85-2.24 4.85-2.24 7.11-2.24v-2l3.25-1.81a48 48 0 0 0 6-3.94C637 541 637 541 640 541v-2q2.95-1.6 6-3"/><path fill="#e0edf7" d="M225 100h1c2.47 17.98 2.2 35.9 2 54l1.87.4 2.45.53 2.43.52A50 50 0 0 1 242 158h3c2.21-2.94 2.21-2.94 4-6l1 2-4 6c-7.05-.45-12.56-2.17-19-5-.79-7.1-1.28-14.18-1.56-21.31l-.13-3.12c-.39-10.19-.4-20.37-.31-30.57"/><path fill="#cdb8d9" d="m388 846 3 1c1 3 1 3-.07 5.35l-1.62 2.71c-3.81 6.7-6.95 13.32-8.31 20.94l-4-1c0-8.9 4-15.65 8.1-23.31q1.5-2.82 2.9-5.69"/><path fill="#cdbbd8" d="M44 574a19 19 0 0 1 5 7l-3 1-1-2a18 18 0 0 0-2.5 8.19 89 89 0 0 1-3.31 16.62c-.4 2.29-.4 2.29 1 4.44 2.07 2 3.07 2.1 5.81 2.75q2.4 1 4.75 2.06l2.42 1.1L55 616c-1.66 1.17-1.66 1.17-4 2-2.66-1.01-2.66-1.01-5.5-2.69l-2.84-1.63L40 612l-2.34-1.27C36 609 36 609 35.54 606.14c.35-5.95 2.3-11.74 3.9-17.45l.98-3.61c2.41-8.74 2.41-8.74 3.58-11.08"/><path fill="#cc8c8c" d="M501 425c3.87 1.12 6.29 2.03 9 5l-2.35.2c-10.33 1.16-21.15 4.35-28.34 12.36-3.26 4.48-5.5 8.93-6.31 14.44l-2-1c.47-5.7 1.94-9.16 5-14h2l.81-1.94C480 438 480 438 483 437v-2c11.71-6 11.71-6 16-6z"/><path fill="#ead08d" d="M156 1085c1.03 2.79 1.05 3.87.06 6.75L155 1094l2 1c1.58 1.75 3.06 3.58 4.56 5.4 1.37 1.72 1.37 1.72 3.44 2.6v2h2q1.53 2.49 3 5l2 1 .75-2.62A34 34 0 0 1 178 1099h2v-11l4 3c-.55 4.96-2.85 8.48-5.44 12.63l-1.23 2.02q-2.59 4.23-5.33 8.35c-2 0-2 0-3.41-1.4l-1.65-1.97a377 377 0 0 0-11.02-12.33c-3.08-3.7-3.08-3.7-3.92-6.3.94-2.65 2.45-4.63 4-7"/><path fill="#b7bb9a" d="m64 114 3 1-1.68 3.29-2.2 4.33-1.1 2.17a70 70 0 0 0-4.15 9.6C57 137 57 137 55 139a79 79 0 0 0-4 19l-2-1c-.36-7.65.97-13.32 4-20.3a67 67 0 0 0 2.63-10.01l.78-3.8L57 120l2 3-1 3h2l.88-3.19c.9-3.04 1.88-5.9 3.12-8.81"/><path fill="#d1837e" d="M114 1138c3.12 1.7 5.39 3.78 7 7 .6 5.28-.73 7.89-4 12-4.03 2.68-7.27 2.68-12 2-3.43-2.04-5.92-4.1-7-8 .07-4.72.37-7.03 2.94-11 4.34-2.83 8.02-3.03 13.06-2m-11.94 3.06c-2.52 3.59-2.48 5.65-2.06 9.94h2l.44 1.88c.5 2.15.5 2.15 1.56 4.12 2.9.67 5.08 1.15 8 1 2.8-2.06 4.07-4.1 6-7 .57-5.08.57-5.08-1.87-9.37-4.67-3.57-9.13-4.03-14.07-.57"/><path fill="#c4a8da" d="M568 14h1c1 8.63-2.86 17.46-7.87 24.38A125 125 0 0 1 558 42l-1.59 1.86C550.53 50.31 542.57 54.4 534 56c-4.34.15-8.66.12-13 0l1-2 1.77.14c8.45.37 16.42-1.4 23.36-6.39L549 46h2l1-2q1.19-1.17 2.44-2.37c2.18-2.24 3.4-3.79 4.56-6.63h2v-2h2a202 202 0 0 0 5-19"/><path fill="#eacb61" d="m189 719 2 5h-2l-1-2h-39l1 6h2a53 53 0 0 1 3 5l1.75 2.69L158 738l-1 2-5.44-7.31-1.56-2.1-1.5-2.02-1.38-1.85C146 725 146 725 145 722c7.41-7.41 34.52-3.14 44-3"/><path fill="#b791d7" d="M460.88 828.81h2.35c4.68.04 9.15.42 13.77 1.19-1.3 2.61-2.38 2.7-5.06 3.75A40 40 0 0 0 455 847h-2c1.25-5 2.84-7.01 7-10l1-2c2.56-.62 2.56-.62 5-1v-2l-5-2-1 2-2-1c-3.74.42-7.38.99-11 2v-2c4.64-2.36 8.8-2.27 13.88-2.19"/><path fill="#fbeecc" d="M164.81 279.19c4.32 1.1 5.6 3.3 8.09 6.86C174 288 174 288 174 290h2a28 28 0 0 1 2.5 3.44c1.79 2.79 1.79 2.79 4.5 4.56 1.96 3.72 2.15 5.97 1 10h-2l-1 3-1-2 2-3c-.1-5.08-3.23-8.27-6.31-12l-1.48-1.83-2.87-3.53q-1.82-2.26-3.57-4.58L166 282h-2c-1.52 2.1-1.52 2.1-3.04 4.81l-1.76 3.01-1.82 3.18-1.86 3.18L151 304c-1-3-1-3-.3-4.9l1.11-2.04 1.08-2.02L154 293l2-4h2l.31-1.69c1.24-4.17 2.12-6.86 6.5-8.12"/><path fill="#e1f0f9" d="M231 98c3.73.5 5.81.87 9 3v2l2.19.38c2.77.61 5.2 1.5 7.81 2.62v2h3v2l2.31.81c2.72 1.2 3.93 1.84 5.69 4.19 1.44 11.22-1.14 21.03-6 31h-2l.55-1.8 1.58-5.28 1.74-5.72q1.2-4.07 2.13-8.2l.64-2.41c.42-2.69.44-4.08-.64-6.59-3.38-2.87-7.1-4.9-11.01-6.94-3.51-1.87-6.9-3.95-10.3-6l-2.01-1.18q-2.36-1.4-4.68-2.88z"/><path fill="#fdf0ce" d="M470 716c3 1.38 3 1.38 5 3v2h2c.27 5.38.38 8.54-3 13-1.8 1.8-4.44 1.22-6.87 1.25l-3.25.08c-2.88-.33-2.88-.33-4.67-1.61A17 17 0 0 1 456 724c2.52-7.38 6.59-8.82 14-8m-9.5 3.56c-2.11 3.43-2.12 5.48-1.5 9.44 1.9 3.15 1.9 3.15 5 5 4 .07 6.15-.41 9.44-2.69 2.07-3.07 2.15-4.67 1.56-8.31-1.34-3.01-1.34-3.01-4-5-4.03-.95-7-.63-10.5 1.56"/><path fill="#d2bddd" d="M590 906c2.93 1.8 4.47 2.94 6 6 .4 4.73.45 7.1-1.69 11.38-2.42 2.75-3.76 3.82-7.31 4.62a59 59 0 0 1-4-1l1.93-.85c5.44-2.5 5.44-2.5 8.26-7.52A36 36 0 0 0 591 908c-6.15-.54-6.15-.54-11.5 2.13-2.74 2.62-2.74 2.62-2.94 5.87.4 2.7.82 5.35 1.44 8-3-2-3-2-3.62-3.99-.42-3.85-.67-6.32.87-9.95 4.19-4.94 8.7-4.87 14.75-4.06"/><path fill="#fbefcd" d="M663 718c4.39 4.39 4.36 11.08 4.63 17l.11 2.2c.35 7.27.36 14.53.26 21.8-4.15-.57-6.8-1.93-10.25-4.25-4.8-3.16-9.68-6.04-14.75-8.75v-2c4.25 1.56 8.1 3.67 12 5.94l1.83 1.05q5.12 2.96 10.17 6.01l-.37-3.04-2.75-23.03-.27-2.18c-.42-3.6-.7-7.12-.61-10.75"/><path fill="#cd7473" d="M112 348c2.9 1.23 4.4 2.22 6.31 4.69 1.05 3.5 1.34 6.73.69 10.31-1.92 3.41-3.34 5.43-7.12 6.73-4.23.72-6.4.5-10.32-1.42-3.66-3.3-4.43-4.83-4.87-9.75.33-3.8 1-5.57 3.31-8.56 4.04-2.7 7.25-2.54 12-2m-12 3a25 25 0 0 0-1 12c1.83 3.17 1.83 3.17 5 5 4.29.8 7.3.46 11-2v-3h2c.52-6.03.52-6.03-1.5-11.56-4.78-2.75-10.33-1.73-15.5-.44"/><path fill="#fcedc2" d="m321.29 158.9 5.56.06 2.15.04 2 4h2c1.3 3.92 1.2 6.86 1 11l-2 2h-4v2q-2.37.12-4.75.19l-2.67.1c-3.08-.35-4.37-1.15-6.58-3.29a21 21 0 0 1-1-10c2.44-2.87 2.44-2.87 5-5 1-1 1-1 3.29-1.1m-4.79 3.72c-1.95 3.1-2.02 4.77-1.5 8.38 1.76 3.71 1.76 3.71 5 6 3.67.4 5.55.25 8.81-1.56 2.9-3.23 3.34-5.13 3.19-9.44-1.97-2.98-3.4-4.64-6.98-5.45-3.42-.19-5.65.2-8.52 2.07"/><path fill="#fbeecb" d="M172 1076h2c5 5.48 5 5.48 5 8h2c2.32 2.86 3.87 5 4.35 8.7-.46 4.37-2.08 7.57-4.1 11.42l-1.05 2.13c-1.95 3.8-3.78 7.06-7.2 9.75-3.06.13-3.06.13-6-1-1.94-2.94-1.94-2.94-3-6l1-2q2.55 2.44 5 5v2c3.4-3.23 5.74-6.94 8.25-10.87l1.43-2.15c2.57-4 2.57-4 3.43-8.57-1.59-3.45-3.78-6.23-6.17-9.16-4.94-6.16-4.94-6.16-4.94-7.25"/><path fill="#fcedc4" d="M110 1335c2.75 1.8 4.53 3.05 6 6q.25 2.93.31 5.88l.12 3.17c-.43 2.95-.43 2.95-2.11 5.3-4.13 2.93-8.47 2.32-13.32 1.65-3.19-1.31-3.19-1.31-5-4-.4-3.7-.29-7.29 0-11h1l.33 2.12.48 2.76.46 2.74c.56 2.72.56 2.72 3.73 4.38 3.02.34 5.1.56 8 0 3.29-2.71 3.9-4.35 4.5-8.56-.27-3.4-.27-3.4-1.94-5.88-3.78-2.3-7.24-2.25-11.56-1.56-2.52 1.32-2.52 1.32-4 3 .19-1.87.19-1.87 1-4 3.9-2.3 7.56-2.48 12-2"/><path fill="#da8892" d="M205 1323h2c2.61 5.22 1.34 12.61-.12 18.06-4.41 13-12.5 22.06-24.3 28.69C180 1371 180 1371 178 1371v-2l5-1v-2c2.9-2.04 4.4-3 8-3v-2h2l.88-1.75L195 1357l1-2.19c1-1.81 1-1.81 3-2.81 3.23-5.81 5.42-11.39 6-18l1-1q-.14-2.55-.44-5.06l-.3-2.79z"/><path fill="#e0eff9" d="M230 888c5.12 1.18 9.31 2.15 13 6 2.6 1.19 2.6 1.19 5 2v2l2 .69 3 1.31 2.11.68c2.69 1.15 4.08 2 5.89 4.32 1.47 8.52.57 17.1-3 25l-1.19 3.06L256 935h-2l.55-1.52c2.97-8.93 4.1-18.2 5.45-27.48l-2.13-.78a70 70 0 0 1-8.83-4.66l-3.37-2.02-1.73-1.04q-2.64-1.6-5.3-3.18l-3.35-2.01-3.07-1.85L230 889z"/><path fill="#9a7fa8" d="M127 601h2c-3.36 7.92-10.95 15.53-18.69 19.13-7.85 3.15-14.93 4.16-23.31 4l-2.64-.03L78 624v-1l6.56-1 3.7-.56c3.74-.44 3.74-.44 7.28-.36 3.88-.09 6.61-.96 10.21-2.4l3.36-1.3c2.64-1.26 3.9-2.34 5.89-4.38h3v-2h2l.81-1.75A33 33 0 0 1 125 603h2z"/><path fill="#d0c0db" d="m362 1149 3 2v2h-2l-.44 1.75L361 1161h2c-1.61 6.86-3.36 13.46-6 20l2 1c2.04 1.62 4.01 3.31 6 5l-1 2-9-6c.98-8.02 2.3-15.87 4.06-23.75l.53-2.38c1.27-5.6 1.27-5.6 2.41-7.87m0 33 2 2-2 1z"/><path fill="#cd7875" d="M492 578.5c3.58.9 5.45 2.88 8 5.5 1.6 3.2 1.37 6.53 1 10-1.25 2.87-2.25 4.44-4.75 6.31-4.76 1.46-8.15 1.27-12.56-1.06-3.78-3.16-3.78-3.16-4.69-6.25-.12-3.25-.12-3.25 0-6h1l.75 2.69c1.35 3.56 2.52 5.65 5.25 8.31 3.62 1.36 3.62 1.36 7 2v-2h4l-.06-2.44C497 593 497 593 498 592c.33-3.46.33-3.46 0-7l-3-2v-2q-2.37.17-4.75.38l-2.67.2A18 18 0 0 0 481 584c3.28-4.1 5.59-5.83 11-5.5"/><path fill="#6d97c2" d="M382 373v1l-8 1v2l-5.69 1.44-3.2.8q-4.04.99-8.11 1.76l1.5 6.69.84 3.76C360 395 360 395 360 400h14a30 30 0 0 1-9.75 3.13l-2.98.5-2.27.37q-1.01-4.59-2-9.19l-.58-2.62-.55-2.55-.5-2.33c-.4-2.47-.43-4.81-.37-7.31 13.12-4.78 13.12-4.78 19.69-6.87l2.32-.75C379 372 379 372 382 373"/><path fill="#7aa1cb" d="M225 96c4.62 1.32 8.1 3.21 12 6-4.18 1.4-6.13-.18-10-2l.4 1.96a152 152 0 0 1 2.26 22.19c.24 5.86.57 11.7 1.97 17.41.5 3.29-.06 6.19-.63 9.44h-2l-.26-3.76-1.38-19.96c-1.08-15.65-1.08-15.65-2.36-31.28"/><path fill="#ab91b8" d="m154 580 3 1c-.46 9.41-3.65 16.94-10 24l-4-2 1.4-2.24A94 94 0 0 0 154 580"/><path fill="#f5e7f8" d="M503 56v1a97 97 0 0 1-18.18-1.46c-6-.88-9.75.42-15.07 3.09C467 60 467 60 465 60l-1 3h-2l-.84 1.75a71 71 0 0 1-3.66 6.19A42 42 0 0 0 453 80l-2-1c2.61-10.2 9.46-17.46 17.9-23.32 10.27-6 23.16-1.83 34.1.32"/><path fill="#b694d2" d="M469 51h11c-2.1 2.1-4.12 3.04-6.8 4.26C461.66 60.56 456.67 67.7 451 79h-2c1.83-8.47 6.6-16.2 13-22 2.81-1.25 2.81-1.25 5-2z"/><path fill="#b996d7" d="M565 767c3.65 5.47 3.18 10.33 3.19 16.69l.03 2.93c.02 7.66-.98 14.16-4.22 21.2l-1 2.2c-1 1.98-1 1.98-3 4.98h-2l1-4h2v-4h2l.18-2.23.26-2.96.24-2.92c.32-2.89.32-2.89.85-5.16.7-4.09.61-8.15.6-12.3v-7.31c-.06-2.16-.06-2.16-.7-4.33L564 768z"/><path fill="#f7d06e" d="M60.44 279.81C64 280 64 280 66 282c.33 3.13.48 5.18-1.12 7.94C63 291 63 291 59.94 290.88 57 290 57 290 55 287c.7-6.93.7-6.93 5.44-7.19"/><path fill="#f2a2aa" d="M187 1300c9.2 4.79 17.04 11.1 21 21-.35 2.3-.35 2.3-1 4-2-3-2-3-2-7h-3a345 345 0 0 1-3.33-4.29c-2.1-2.14-4.34-3.3-6.98-4.71-2.64-1.48-2.64-1.48-4.69-3-.62-3.37-.62-3.37 0-6"/><path fill="#fdf1c2" d="m161.96 716.89 3.92.01h2.08l11.07.05L190 717c3.22 5.18 3.22 5.18 4 7l-1 3-4-7q-6.52-.04-13.06-.06l-3.73-.03c-5.86-.01-11.43.1-17.21 1.09q-2.47.1-4.94.06l-2.34-.02L146 721c3.05-2.03 4.13-2.3 7.62-2.56 3.27-.26 5.21-1.43 8.34-1.55"/><path fill="#c87e81" d="M439 471h1l3 18h3l1 7 3 1-1 3 2.1-.04c8.35-.07 16.58.4 24.9 1.04v2l-10.06-.44-2.86-.12q-2.78-.12-5.55-.29-3.24-.18-6.48-.27c-3.05-.88-3.05-.88-5.2-3.83a95 95 0 0 1-1.66-3.74l-.87-1.85c-2.56-5.6-4.61-10.63-4.44-16.83l.05-2.65z"/><path fill="#d68991" d="M284 1377c4.3 2.47 4.3 2.47 6 5 .74 3.14.7 5.85 0 9a14.5 14.5 0 0 1-6 5c-3.87.43-5.52.32-8.81-1.87-2.8-2.72-3.13-3.53-3.5-7.44.36-4.27 1.33-5.71 4.31-8.69 2.9-1.45 4.77-1.37 8-1m-10 4c-1.25 4.34-1.1 7.01 1 11 1.94 2.39 1.94 2.39 5.5 2.19 3.35.05 3.35.05 5.5-1.19v-2h2v-8h-2l-1-4-3.81-.12-2.15-.08c-2.35.07-2.35.07-5.04 2.2"/><path fill="#eac263" d="M110 1337c3.06 2.06 3.06 2.06 5 5 .44 3.69.44 3.69 0 7l-2 2-.08-1.9-.17-2.47-.14-2.47c-.4-2.31-.4-2.31-2.5-3.46-2.75-.91-4.36-.55-7.11.3-3.14 1.59-3.14 1.59-3.4 3.88l.03 2.12-.03 2.13c.26 2.28.26 2.28 3.4 3.87 2.06.24 2.06.24 4.19.13l3.81-.13-1 2c-7.07.6-7.07.6-11-1.94-2.68-4.1-2.93-7.28-2-12.06 2.84-5.06 7.75-5.06 13-4"/><path fill="#99b4d1" d="M228 133h1l1 18 5 2 1-2 1 3c2.94 1.18 3.9 1.03 7 0l4-5h2v-2l2 1-7 11c-6.2-1.03-11.15-2.79-17-5z"/><path fill="#97b4d5" d="M0 504a65 65 0 0 1 11.75 5.94l1.79 1.05c4.34 2.65 4.34 2.65 5.46 6.01-.71 2.18-.71 2.18-1.87 4.67l-1.24 2.7-1.33 2.82-1.31 2.85L10 537c-1.24-3.7-.57-4.65.88-8.19A46 46 0 0 0 14 515l-3-1v-2H9v-2l-5-1v-2l-4-1z"/><path fill="#749fc9" d="M412 379h2v13a64 64 0 0 1-11.87 3.5l-1.97.4-4.08.81-6.22 1.25-3.99.8-3.63.72a41 41 0 0 1-8.24.52c4.3-2.86 8.82-3.51 13.81-4.62l2.99-.7c4.8-1.08 9.24-2 14.2-1.68v-2l7-2z"/><path fill="#d3bbe2" d="m466.73 47.8 3.93.02 4.09.05 4.14.03L489 48v4l-11 1v-1l-22-2c4.23-2.11 6.11-2.24 10.73-2.2"/><path fill="#f6e8f8" d="M530 0h2c-2.38 15.72-8.83 29.54-21 40-4.35 3-4.35 3-7 3v-2l6-2v-2h2v-2l2.31-1.75c3.02-2.52 4.1-4.7 5.69-8.25l2-3h2l.55-2.02z"/><path fill="#84a6cb" d="m257 905 3 1c.92 12.9-3.13 25.2-10 36l-2-4h2l1-8h2l.38-2.37C254 925 254 925 256 923c1.27-5.96 1.1-11.93 1-18"/><path fill="#f6e9f7" d="m454 808 2 2-3.2.48c-14.47 2.29-27.1 6.02-39.7 13.66q-2.51 1.49-5.1 2.86l-2-1c4.63-4 4.63-4 8-4v-2c11.37-6 26.9-13.15 40-12"/><path fill="#e9c776" d="M469.1 717.55c1.9.45 1.9.45 4.4 2.58 1.76 3.36 2.14 5.13 1.5 8.87-2.17 3.2-3.72 3.91-7.44 5.06-3.56-.06-3.56-.06-6.5-2.06-2.55-3.72-2.78-5.57-2.06-10 2.56-4.16 5.48-4.7 10.1-4.45m-6.98 2.51c-1.72 2.98-1.36 5.58-1.12 8.94l1 2c4.65.27 4.65.27 9-1 1.86-2.65 2-3.9 1.75-7.19L472 720c-3.29-1.64-6.64-1.77-9.87.06"/><path fill="#e3eff9" d="M19 515c1.4 4.42-.06 7-2 11l-2.31 5.06-1.3 2.83a749 749 0 0 0-6.06 13.85c-1.38 3.24-1.38 3.24-2.32 6.62L4 557l-3 1a160 160 0 0 1 6.57-17.32l1-2.24 5.24-11.8z"/><path fill="#6d9ecf" d="m652 51-5 1-1 3h-2l2 6 3-1c2 2 2 2 2.88 3.94 1.32 2.43 2.91 3.44 5.12 5.06v2h2l-1 3-2.05-2.12A169 169 0 0 0 637 55c2.16-2.16 3.52-2.72 6.38-3.69l2.33-.82c2.5-.53 3.9-.3 6.29.51"/><path fill="#f0e1f2" d="M62 591a1542 1542 0 0 1 13.56 4.56l1.96.67a54 54 0 0 0 15.56 3.09l2.82.12 2.91.12 2.97.13 7.22.31c-2.62 2.62-4.59 2.31-8.17 2.38-13.4-.03-26.32-1.86-37.83-9.38z"/><path fill="#efd4d4" d="M559 323h1l.3 2.2c.92 5.99 1.9 10.06 5.7 14.8l2 3h-2l-1 3c-5-5.75-5-5.75-5-8l-1.87-.75c-2.48-1.46-3.08-2.63-4.13-5.25l1.94-2.25c1.84-2.46 2.62-3.78 3.06-6.75"/><path fill="#c78d90" d="M251 0h3l1.31 2.88C256.8 6.2 256.8 6.2 260 8c4.96-.13 4.96-.13 8.88-2.87C270.12 2.9 270.12 2.9 271 0h3c-.19 4.08-.78 5.75-3.5 8.88-3.31 2.45-6.25 2.85-10.31 2.6-3.92-.86-5.55-2.44-8.19-5.48-.87-3.31-.87-3.31-1-6"/><path fill="#719ac2" d="M225 886a265 265 0 0 1 20.5 11.13l2.7 1.58 2.58 1.55 2.32 1.38C255 903 255 903 257 906l-8-2v-2l-4-1v-2l-6-2v-2a70 70 0 0 0-11-3l-1 7h-1z"/><path fill="#bac19b" d="M125 834h1v25c-2 1-2 1-6 0v-14l3 3z"/><path fill="#b899d2" d="M607 1441a69 69 0 0 1 13.19 5.69l1.96 1.05c5.8 3.16 11.36 6.6 16.85 10.26-1.7.7-1.7.7-4 1-2.26-1.26-2.26-1.26-4.69-3.12-4.58-3.4-9.26-6.23-14.31-8.88l1.88 2.81L622 1456l-1 3-1.54-2.16A194 194 0 0 0 607 1441"/><path fill="#a9b286" d="M659 1446c4.24 3.88 7.1 8.04 10 13-5.06.7-5.06.7-8 0a23 23 0 0 1-6-8c1-3 1-3 4-5"/><path fill="#d59494" d="m478 415 2 2-3.19.44-3.81.56-2.69.38c-2.7.73-4.11 1.9-6.31 3.62l-1.96 1.46c-3.73 2.79-7.43 5.6-11.04 8.54l-2-1c7.41-9.74 16.5-16.6 29-16"/><path fill="#ebca62" d="m388 1033 3 1-1.94 2.5A413 413 0 0 0 374 1057c-3-3.62-3-3.62-3-7l5 1 .69-1.94c5.42-12.65 5.42-12.65 11.31-16.06"/><path fill="#93b1d4" d="M635 574a32 32 0 0 1-8.44 3.95l-3.2 1.07-3.36 1.1-3.35 1.13-3.21 1.07-2.94.98c-2.5.7-2.5.7-5.5.7v-7h2v4l6.38-1.87 3.58-1.06c3.1-.85 3.1-.85 5.04-3.07 4.31-1.27 8.55-1.08 13-1"/><path fill="#fcebb2" d="M218.8 1452.87h20.82c2.93.11 5.54.45 8.38 1.13v1l-36 1 1 3h-3v-5c2.93-1.46 5.53-1.13 8.8-1.13"/><path fill="#fdf0c2" d="M385 995c2.66 1.33 2.69 2.42 3.69 5.19 1.76 4.6 3.8 8.98 6 13.37l.94 1.88c1.4 2.98 1.4 2.98 3.37 5.56.42 5.22.42 5.22 0 8-1.87 1.75-1.87 1.75-4 3l-1 2c-1.23 2.46-2.74 3.5-5 5l-2-1 2.22-2.23 2.84-2.96 1.47-1.46c1.6-1.62 1.6-1.62 3.47-4.35-.36-3.9-1.83-7.11-3.5-10.63l-1.5-3.2-6-12.7c-1-2.47-1-2.47-1-5.47"/><path fill="#f6e9f7" d="m403 828 2 1-2.56 2.39c-10.73 10.2-17.7 20.86-23.44 34.61-.76-2.25-1.14-3.56-.41-5.86l1-1.89 1.07-2.1 1.15-2.15 1.12-2.16q1.04-2 2.1-3.98 1.01-1.95 1.95-3.94c1.5-2.83 3.7-4.72 6.02-6.92l2.5-2.56A85 85 0 0 1 403 828"/><path fill="#ba96d8" d="m460.81 49.94 2.4.01L469 50c-2 2-2 2-5 3l-5-1-3 1h-2q-3.5.98-7 2l-2.19.44c-1.96.48-1.96.48-3.75 2.12-2.53 1.77-4.04 1.7-7.06 1.44 1-3 1-3 3.55-4.35l3.2-1.27 3.17-1.3c5.75-2.02 10.87-2.2 16.9-2.14"/><path fill="#eccd76" d="M323 950.44c3.8.71 5.41 1.68 8 4.56 1.26 4.08 1.44 6.05-.37 9.94-3.3 2.59-5.38 2.79-9.5 2.54-2.13-.48-2.13-.48-4.7-2.6-1.7-3.41-2.13-5.13-1.43-8.88 2.46-3.33 3.9-4.8 8-5.56m-6 5.56c-.33 3.13-.33 3.13 0 6h2l1 4q2.22-.17 4.44-.37l2.5-.22L329 965c1.52-3.05 1.24-5.64 1-9-.98-2.06-.98-2.06-3-3-4.28-.55-7.1-.35-10 3"/><path fill="#709bc4" d="M656 840c3.8-.55 7.22-.74 11 0 5.86 4.81 8.32 13.87 10 21 .26 2.78.21 5.2 0 8l-4 2 .07-3.04.05-4.02.08-3.98c-.2-4.08-.93-7.11-2.2-10.96h-2l-3-7-10-1z"/><path fill="#cc7776" d="M226 632.44c3.66.68 5.35 1.99 8 4.56 1.48 2.96 1.06 5.74 1 9l-2 1-.15-1.9-.22-2.48-.22-2.46c-.24-2.36-.24-2.36-2.41-4.16-2.21-.24-2.21-.24-4.62-.12l-2.48.05-1.9.07v3h-2c.44 4.1.44 4.1 2.13 7.81 2.8 1.78 5.61 1.88 8.87 2.19l-1 2c-3.94.46-5.57.3-8.87-2-2.37-3.34-2.89-5.06-2.61-9.06 1.14-4.58 4.02-6.67 8.48-7.5"/><path fill="#c8b0d5" d="m147 496 2 2c-5.27 5.64-10.96 9.3-17.87 12.56l-2.28 1.09c-5.46 2.48-5.46 2.48-8.85 1.35 4.68-2.66 9.36-5.18 14.25-7.44 4.52-2.2 6.76-4.57 9.75-8.56z"/><path fill="#c5aadb" d="m557 815 3 1c-7.75 9.24-13.89 15.12-26 17v-2c4.02-1.81 7.61-3.34 12-4v-2h3v-3h2v-3h3l1-3z"/><path fill="#ecca70" d="M325.02 160.55c3.57.8 5.01 2.47 6.98 5.45.15 4.31-.3 6.21-3.19 9.44-3.33 1.85-5.05 2.2-8.81 1.56-3.3-2.68-4.85-4.62-5.31-8.87.31-3.13.31-3.13 1.81-5.5 2.87-1.87 5.1-2.27 8.52-2.08M317 164c-.55 5.2-.55 5.2 1.06 10 2.96 1.53 5.68 1.18 8.94 1v-3h3c.53-4.84.53-4.84-1.62-8.94-4.42-1.97-7.39-1.72-11.38.94"/><path fill="#bfc4a1" d="M77 65h1c.98 15-.09 28.38-7 42l-2 2c.45-5.27 1.08-10.02 3-15h2l-.06-3.87c-.06-3.88-.06-3.88 1.06-6.13h2z"/><path fill="#db8993" d="m181 1302 6 2-2 2 .94 2.25c2.43 8.6 3.03 16.58-.94 24.75-2.02 3.4-4.05 6.35-7 9l-2-1 1.2-1.25c6.46-7.03 8.38-13.15 8.17-22.7-.5-4.05-1.78-7.4-3.5-11.09-.87-1.96-.87-1.96-.87-3.96"/><path fill="#f7ecf7" d="M451 1169c0 5.41-3.84 9.77-7 14-3.12 2.38-3.12 2.38-6 4l-2.31 2.56c-3.54 3.21-7.14 4.22-11.69 5.44l-1-2 2.38-1.07c10.46-4.91 15.98-10.9 23.02-19.9 1.6-2.03 1.6-2.03 2.6-3.03"/><path fill="#b299c2" d="m472 1130 4 1c1.15 4.09 1.11 8.03 1.06 12.25l-.01 2.26-.05 5.49h-3l-1-7.69-.29-2.18A69 69 0 0 1 472 1130"/><path fill="#a483b8" d="M414 1094a309 309 0 0 1 22 15l-1 3-3-1-.87-2c-.99-2.3-.99-2.3-3.75-2.75L425 1106v-2h-4l-.69-1.87c-1.69-2.74-3.3-3.18-6.31-4.13l-1 2v-2l-3-1z"/><path fill="#c3a8d5" d="M452 847h2c-1.82 5.6-1.82 5.6-2.99 8.14-4.02 9.29-3.81 18.9-4.01 28.86h-2a740 740 0 0 1-.19-9.56l-.07-2.72c-.07-5.78.66-9.56 3.26-14.72a166 166 0 0 0 1.63-4.87c1.26-4.02 1.26-4.02 2.37-5.13"/><path fill="#b2ba95" d="M510 1332v1l8 1v1l-2.56.08c-7.1.35-12.46 1.04-18.44 4.92l-3.19 2c-2.69 1.91-5.26 3.9-7.81 6 3.97-8.77 13.95-17.29 24-16"/><path fill="#e7c7c7" d="M213 1227v2l-2.93.26c-11.06 1.2-19.75 3.45-27.6 11.9A51 51 0 0 0 177 1250l-2-2c6.48-10.1 6.48-10.1 10-13h2v-2c8.82-3.75 16.43-6 26-6"/><path fill="#fbefce" d="M169 1069v2h2l1 5-5-5c-3.82 1.27-4.07 2.42-5.92 5.91l-1.6 3-1.67 3.15-1.7 3.17L152 1094h-1v-5h2v-4h2l.55-1.76c1.49-4.62 3.02-9.01 5.45-13.24 2.7-1.35 5-1.07 8-1"/><path fill="#be9dd5" d="M433 60c-4.56 3.8-4.56 3.8-6.85 4.85-2.84 1.52-4.92 3.53-7.27 5.71-4.69 4.34-4.69 4.34-6.88 5.44a78 78 0 0 0-2 5h-3c2.87-9.06 12.42-16 20.03-21.17 2.41-1.02 3.55-.72 5.97.17"/><path fill="#cfb8df" d="m502 53 1 1q3.4.38 6.81.63l3.77.28c2.82.07 4.79-.02 7.42-.91v2h8v1c-14.67.39-28.56-.34-43-3v-1c5.59-.82 10.45-1.16 16 0"/><path fill="#e0acad" d="M600 384c2.58 2.24 3.4 3.66 4 7 .78 11.36.55 22.74-7 32l1-8h2c1.74-9.22 2.29-17.31.47-26.57C600 386 600 386 600 384"/><path fill="#e5afb2" d="M574 374c2 2 2 2 2.27 4.72-.3 3.66-1.25 6.38-2.64 9.78-1.32 3.23-2.6 6.42-3.7 9.73A34 34 0 0 1 566 406l-4-1 1.17-1.8c5.8-9.24 9.06-18.46 10.83-29.2"/><path fill="#ccd0b5" d="m299 557-1.94 2.31c-2.7 3.52-3.17 5.88-3.06 10.19.08 2.96-.04 4.63-1 7.5l2 2q-.46 3-1 6 .45 2.01 1 4l-1 3c-4.33-9.81-4.84-23.89-1-34 3.33-2.33 3.33-2.33 6-1"/><path fill="#e7c459" d="M222.41 1454.83h2.21l4.64-.02q3.5 0 7.01-.03c14.6-.06 14.6-.06 21.73 2.22l1 2-5-.44-2.81-.24q-3.45-.35-6.87-.85c-5.14-.65-10.27-.62-15.44-.6h-2.92c-4.77 0-9.28.14-13.96 1.13v-2c3.53-1.18 6.74-1.16 10.41-1.17"/><path fill="#a789b9" d="M80 601h37l-1 2h-3v2l-2.81-.56c-3.2-.68-3.2-.68-6.19.56l-2-1h-3c-3 0-3 0-5-1l-1 2c-4.38-.82-8.68-1.9-13-3zm31 1 1 2Z"/><path fill="#f5e8f6" d="m391 1168 3.15.66c7.69 1.55 14.97 2.88 22.85 2.34l3.5-.23q4.75-.36 9.5-.77l-1 2c-5.3 1.45-10.73 1.22-16.19 1.25l-3 .06A51 51 0 0 1 391 1170z"/><path fill="#f6ebf5" d="m399 1087 1 2c-.9 1.8-.9 1.8-2.32 3.96l-1.56 2.41-1.68 2.57-3.34 5.2-1.63 2.53c-3.96 6.26-7.5 11.87-8.47 19.33h-1c-.53-5.9.09-9.01 3.52-13.85a94 94 0 0 0 4.36-7.23c1.98-3.38 4.18-6.61 6.37-9.86l1.4-2.07q1.66-2.5 3.35-4.99"/><path fill="#e3b0ae" d="M474 414c6.83-.52 12.96.22 19.56 1.88l2.13.52c5.04 1.33 5.04 1.33 7.31 3.6q-6-.47-12-1c-1.12-.1-1.12-.1-2.26-.18-5.2-.52-9.86-2.03-14.74-3.82z"/><path fill="#e7f3fb" d="M416 362h1c1.01 10.39 1.68 20.79-1 31-3.44 2.29-4.99 2.18-9 2 2.57-2.57 4.48-2.54 8-3l-.02-1.68c-.16-19.5-.16-19.5 1.02-28.32"/><path fill="#f4cc54" d="m389 1011 1.25 1.69q1.85 2.44 3.81 4.81c3.94 5.08 3.94 5.08 3.94 8.44-1.58 3.25-4.15 4.88-7 7.06l.5-2.06c1.15-6.73.28-10.9-2.5-16.94z"/><path fill="#d9eaf6" d="M223 886c5.96 11.1 5.14 24.8 5 37h-1a171 171 0 0 1-2.75-23.95c-.05-2.96-.05-2.96-1.25-5.05-.13-2.67-.04-5.32 0-8"/><path fill="#e0f0fa" d="M667 838v3l-1.84-.14c-7-.29-13 .87-19.68 2.8-6.09 1.72-6.09 1.72-9.48.34 10.8-4.95 19.25-6.22 31-6"/><path fill="#e5a9aa" d="M511.25 421.88c6.53 1.41 13.1 1.76 19.75 2.12v1l-1.7.04-7.61.27-2.67.07-2.57.1-2.37.09c-2.53.52-3.45 1.47-5.08 3.43-3-2-3-2-3.69-4.62L505 422c2.58-1.29 3.48-.8 6.25-.12"/><path fill="#759fc9" d="m281 382-1 2-6-1v2l-10 2c-.87 4.35-1.04 5.97 0 10h-2l-1.5-3.81-.84-2.15C259 389 259 389 259 386q4.5-1.52 9-3l3.69-1.25c3.51-.8 5.84-.6 9.31.25"/><path fill="#c1a3d9" d="M532 0h2a118 118 0 0 1-10 29h-2l-2 4-1-2a85 85 0 0 1 3.19-5.44C527.06 17.46 529.92 9.2 532 0"/><path fill="#fbecc9" d="M368 1322c3 3 3.01 6.65 3.63 10.69l.4 2.56A123 123 0 0 1 373 1358h-1a6981 6981 0 0 1-3.12-23.73l-.51-3.86c-.3-2.84-.45-5.55-.37-8.41"/><path fill="#baa2c6" d="m157 565 2 1 .06 5.69.04 3.2A40 40 0 0 1 158 583h-3c-1.2-3.65-.97-6.89-.69-10.69l.24-3.5.45-2.81z"/><path fill="#d1e4f3" d="M282 378c1 1 1 1 1.11 3.5l-.01 3.29-.01 3.54-.03 3.73L283 405h-1v-25l-14 4-2-2c10.6-4.7 10.6-4.7 16-4"/><path fill="#fbefbd" d="M203 744v3c-7.99 2.77-15.45 5.36-24 5 2.24-2.24 3.51-2.62 6.5-3.5l2.69-.8 2.81-.83 2.81-.83c6.9-2.04 6.9-2.04 9.19-2.04"/><path fill="#629cd7" d="M274 383q3-.06 6 0c1 1 1 1 1.11 4.33l-.02 6.77-.04 12.5L281 419l-6-1 1-2 4 1-.68-7.52c-.25-2.6-.25-2.6-1.32-5.48q.48-2 1-4 .33-3.87.56-7.75l.13-2.11.31-5.14h-5z"/><path fill="#cfbcdc" d="M451 113c3.88 4.75 3.88 4.75 5 7-24.98.62-24.98.62-35-3 3.75-2 3.75-2 6-2v2l1.8.18c4.11.44 8.16.9 12.2 1.82l1-2 1 1q2.27.34 4.56.56l2.5.26 1.94.18z"/><path fill="#92b2d5" d="M247 940h2l1 3c-1 1.82-1 1.82-2.44 3.69l-1.43 1.88L245 950l-4.81-1.37-2.71-.78C235 947 235 947 232 945l3.13.13c3.8-.13 6.41-.6 9.87-2.13z"/><path fill="#e9d190" d="m662 726 2 1c1.21 3.64 1.62 7.27 2.06 11.06l.27 2.3c.63 5.58.85 11.02.67 16.64l-5-2 3-1c-.64-6.34-1.55-12.6-2.6-18.89-.4-3.07-.47-6.01-.4-9.11"/><path fill="#cfb9dd" d="m580 115 1 2c-1.37 2-1.37 2-3 4h-2l2 5h-2c1.73 4.12 1.73 4.12 4.69 7.38 3.48.94 6.71.74 10.31.62l-1 2c-7.95.62-7.95.62-11.94-1.75-2.84-3.1-3.89-4.94-4.43-9.12.47-3.95 1.93-6.04 4.37-9.13z"/><path fill="#d1c3e0" d="M248 1149c-3.1 2.07-4.12 2.28-7.69 2.5-4.66.4-8.85 1.07-13.31 2.5l-2 3-5-5c18.47-3.17 18.47-3.17 28-3"/><path fill="#fcefce" d="m626 699 3 1h-2l-.15 2.2c-.4 5.41-.95 10.7-1.91 16.05-1.6 8.01-1.6 8.01.06 15.75l-3-1c-.33-8.83.7-17.28 2-26l.5-3.9c.5-3.1.5-3.1 1.5-4.1"/><path fill="#b8bea0" d="M398 669c2.52 2.52 2.26 4.12 2.27 7.57l-.02 2.18.02 2.13A31 31 0 0 1 398 693l-3-1 1-6h2l-.53-2.1c-.52-3.23-.35-5.97-.03-9.21l.3-3.24z"/><path fill="#c7afd9" d="m406 80 1 3q-1.42 2.58-2.95 5.1A34.5 34.5 0 0 0 400 104a26 26 0 0 0 3 3c-3 0-3 0-6-2 0-9.48 4.61-16.86 9-25"/><path fill="#6695c0" d="M656 860h3v2l1.88.69c2.74 1.7 2.99 3.36 4.12 6.31 3.29 1.1 4.71.8 8 0l-1 3c-3.06 1.19-3.06 1.19-6 2l-4.44-4.75-2.5-2.67c-1.9-2.37-2.68-3.63-3.06-6.58"/><path fill="#c6a9db" d="M530 761h1q.09 5.8.13 11.63l.05 3.31c.06 10.04.06 10.04-2.18 15.06l-2-1 .47-2.36c.8-5.5.92-11.01 1.14-16.56l.1-2.62.1-2.38C529 764 529 764 530 761"/><path fill="#a78db9" d="m413 1192 2 1v3c-4.22 1.02-8.23 1.17-12.56 1.19l-3.94.04c-3.19-.2-4.86-.53-7.5-2.23l2.52-.18 3.3-.26 3.26-.24c2.98-.22 2.98-.22 5.92-1.32v2l3.38-1.56z"/><path fill="#f7c34b" d="M471 722c-.62 2.88-.62 2.88-2 6-3.12 1.38-3.12 1.38-6 2l-1-8c3.33-1.1 5.62-.84 9 0"/><path fill="#b399c5" d="M59 619c6.11-.2 11.22-.25 17 2h4l2 2a39.4 39.4 0 0 1-22-2z"/><path fill="#dfcee7" d="M82 519v3Zm-2 3 1 2-5 5c1.2-2.5 2.45-4.68 4-7m6 4 2 1-7.37 4.44-2.12 1.27-2.03 1.22-1.88 1.13A62 62 0 0 1 71 537c1.17-3.33 2.12-5.86 5-8q2.48-.59 5-1l2.69-1.12z"/><path fill="#729cc5" d="M676 68h1c.48 3.45.69 6.57 0 10a15.2 15.2 0 0 1-8 5c-3.31-1.07-5.09-2.97-7.25-5.62l-1.58-1.92L659 74c3.24.35 4.62.56 6.81 3.06L667 79l8-1z"/><path fill="#f5e6fa" d="M610 1441c3.97.6 6.89 1.84 10.38 3.81l2.9 1.63L626 1448l2.13 1.21 1.8 1.04c2.91 1.73 2.91 1.73 5.45 2.81 1.62.94 1.62.94 2.62 3.94-4.58-1.66-8.66-3.97-12.87-6.37l-2.07-1.18A2298 2298 0 0 1 610 1442z"/><path fill="#ebd392" d="M165 1070c3 1.32 4.78 2.6 6.8 5.19l1.46 1.86 1.49 1.95 1.54 1.95c3.71 4.78 3.71 4.78 3.71 7.05h-2v-2h-2c-3-3.14-4.73-5.16-6.06-9.31L169 1074c-2.03-.97-2.03-.97-4-1l-1 3h-2c1.88-4.87 1.88-4.87 3-6"/><path fill="#bb99d7" d="M527 790h1c.57 9.74.57 9.74-3 14h-2l-.81 2.44L521 809l-3 1c1.68-4.37 3.63-8.58 5.63-12.81l.98-2.1z"/><path fill="#79a3ce" d="M651 534c2 3 2 3 1.63 5.19L652 541v-2c-3.81.52-5.38 1.26-8 4h-3l-1 3-5 1v2h-5c3.55-2.93 7.21-5.54 11.06-8.06 3.4-2.23 6.73-4.47 9.94-6.94"/><path fill="#5a98da" d="m372 378-1.64.8-2.17 1.07-2.15 1.06c-2.25 1.14-2.25 1.14-5.04 3.07l-1-1v8l2 1-3 3c-1.34-4.84-2.25-8.93-2-14 10.94-5.03 10.94-5.03 15-3"/><path fill="#f6e9f8" d="m408 74 3 1-1.36 1.8c-6.17 8.47-10.12 17.38-13.64 27.2-2.18-6.54 3.18-14.57 6.06-20.44A53 53 0 0 1 408 74"/><path fill="#e4b7b7" d="M608 1009a23 23 0 0 1 3 5l-1 2-2-3c-3.4-1.36-4.85-1.06-8.31.25l-1.78.85c-3.22 1.52-6.57 2.67-9.91 3.9 1-3 1-3 4.5-4.86l4.38-1.89 2.22-1c5.52-2.38 5.52-2.38 8.9-1.25"/><path fill="#e1f1fa" d="M669 842h2c4.77 9.06 8.55 17.52 7 28-1.52 1.83-1.52 1.83-3 3l-3-2 4-2c.71-9.23-2.28-17.17-7-25z"/><path fill="#f5e9f5" d="m390 64 2 1-1.32 1.91a109 109 0 0 0-10.42 20.12C379 90 379 90 377 93c.84-9.61 5.16-17.8 10-26h2z"/><path fill="#cfd2bd" d="M571 1230c5.94 2.86 11.43 6.5 17 10l-1 3-3 1-10.16-10.06-1.65-1.63C571 1231 571 1231 571 1230"/><path fill="#d7dac7" d="M347 630c5.2 1.6 10.07 3.74 15 6-1.55 1.12-1.55 1.12-4 2-3.45-.68-3.45-.68-7.25-1.87l-1.97-.61q-2.4-.75-4.78-1.52z"/><path fill="#c6abd3" d="m166 465-1 3a48 48 0 0 1-15 4l-3 1 1-3a90 90 0 0 1 7.94-3.25l2.25-.85c5.54-2.03 5.54-2.03 7.81-.9"/><path fill="#d28983" d="M111.48 1137.57c4.06.7 5.75 2.45 8.52 5.43 1.38 2.76 1.2 4.95 1 8l-2 2v-9l-3-1v-2a26 26 0 0 0-11-1 35 35 0 0 0-6 5c2.9-6.45 5.56-7.61 12.48-7.43"/><path fill="#fdeec4" d="M330 954h3c.33 4.72.54 8.72-1.31 13.13-4.26 2.96-8.66 2.26-13.69 1.87l-2-5 3 2c4.01.63 7.74.9 11.13-1.5 1.31-3.76.58-6.6-.13-10.5"/><path fill="#e9c754" d="M158 741c3.48 1.16 4.69 2.17 7 5a51 51 0 0 1 2 7l2.7-.91 3.55-1.15 3.52-1.16c3.03-.73 4.39-.9 7.23.22q-3.09 1.3-6.19 2.56l-3.48 1.44c-3.5 1.05-5 1.46-8.33 0-2.24-2.69-2.24-2.69-4.31-6l-2.12-3.31C158 742 158 742 158 741"/><path fill="#719cc6" d="M237 103c5.25 1.51 9.7 3.81 14.38 6.56l2.23 1.2c2.15 1.27 3.77 2.33 5.39 4.24.63 3.1.47 5.88 0 9h-1v-8l-4-1v-2l-2.18-.31c-3.13-.77-5.28-1.97-8-3.69-3.35-2.1-3.35-2.1-6.82-4z"/><path fill="#fcefc7" d="M318 949q2.43-.08 4.88-.12l2.74-.08c2.38.2 2.38.2 4.38 2.2l-1 3-3-2c-3.54-.45-5.33-.42-8.37 1.5-2.37 3.63-1.92 6.22-1.63 10.5l-2-1c-.12-7.62-.12-7.62 1-11h2z"/><path fill="#c1a6d5" d="m415 847 2 1a197 197 0 0 1-13 16l-1-3c1.26-2.09 1.26-2.09 3.13-4.37l1.94-2.4A95 95 0 0 1 415 847"/><path fill="#d1c1da" d="M44 574c2.3 2.2 3.7 4.1 5 7l-3 1-1-2a20 20 0 0 0-2.62 8.75l-.23 2.42L42 593l-3 1c.55-7.09 2.6-13.33 5-20"/><path fill="#cab8d8" d="m357 1172 3 1-3 8 2 1c2.04 1.62 4.01 3.31 6 5l-1 2-9-6c.88-8.75.88-8.75 2-11m5 10 2 2-2 1z"/><path fill="#f5e5f9" d="M522 729c4.8.6 8.46 2.64 12.63 4.94l2.02 1.09c2.87 1.56 5.63 3.16 8.35 4.97v2c-4.8-1.76-9.24-4.12-13.75-6.5l-2.36-1.22-2.25-1.19-2.05-1.07C523 731 523 731 522 729"/><path fill="#ecd18f" d="M60.44 279.81C64 280 64 280 66 282c.33 3.13.48 5.18-1.12 7.94C63 291 63 291 59.94 290.88 57 290 57 290 55 287c.7-6.93.7-6.93 5.44-7.19M59 281c-2.27 1.83-2.27 1.83-2.19 4.56-.08 2.39-.08 2.39 1.19 3.44q3 .06 6 0v-7c-2.4-.68-2.4-.68-5-1"/><path fill="#fbefc3" d="m385 1041 1 3a67 67 0 0 1-4 6l-2.75 3.88L377 1057l-3-1c7.3-10.56 7.3-10.56 11-15"/><path fill="#fbeece" d="M640 705c6.45 1.02 10.68 2.72 15.96 6.56A39 39 0 0 0 662 715v2c-4.84-1.77-9.28-4.2-13.81-6.62l-2.4-1.28L640 706z"/><path fill="#fbefcb" d="M151 304c7.12 5.6 14.27 12.6 18 21l-3-1v-2l-1.94-.81C162 320 162 320 161 317a281 281 0 0 0-5-5c-5-5.5-5-5.5-5-8"/><path fill="#cbb5d9" d="M446 884h2l1.94 5.31 1.09 3q1.01 2.82 1.97 5.69h-9l3-2c.33-2.54.33-2.54 0-5l-1-1q-.06-3 0-6"/><path fill="#dc9d9f" d="m510 429 2.38.56c2.6.7 2.6.7 4.62-.56l1 2c1.9 1.24 1.9 1.24 4 2l2-1 2 2c2.1-.32 2.1-.32 4-1l-2 1v2l4 2c-5.63-.52-9.9-2.06-14.94-4.56l-2.07-1L510 430z"/><path fill="#e9d08e" d="M164 281c4.4 1.54 6.6 5.01 9.25 8.63l1.4 1.85L178 296h-3c-1.68-1.9-1.68-1.9-3.44-4.37-2.27-3.2-3.88-5.16-7.56-6.63l-2 3-2-1z"/><path fill="#7298c0" d="M225 96c4.93 1.64 7.9 3.07 12 6-4.18 1.4-6.13-.18-10-2l.5 2.38c.63 4.56.58 9.02.5 13.62h-1z"/><path fill="#fcefcd" d="M336 1342c5.04 1.45 9.13 3.66 13.56 6.38l1.96 1.17A82 82 0 0 1 362 1357c-6.57-1.26-12.13-5.24-17.73-8.7-2.31-1.42-2.31-1.42-5.27-2.3v-2l-3-1z"/><path fill="#ccb8d9" d="M459 1041v2l-2.17.88A514 514 0 0 0 434 1054c1-3 1-3 2.81-4.15l2.34-1.08 2.55-1.18 2.68-1.21 2.65-1.24C456 1041 456 1041 459 1041"/><path fill="#b3b89a" d="M47 915c1.53 3.07.63 5.59.13 8.94l-.56 3.77C46 931 46 931 45 934h-2c-.38-6.8.17-11.78 3-18z"/><path fill="#77abe7" d="M629 549v3l-3 1-1 9-1-2h-3v-4l-2-1 3.88-2.44 2.17-1.37C627 550 627 550 629 549"/><path fill="#d8c6e0" d="m124 479 2 1c-3.44 2.1-6.94 4.05-10.5 5.94a51 51 0 0 0-8.5 5.5l-2 1.56-3-1a77 77 0 0 1 15.38-9.94l1.87-.96A76 76 0 0 1 124 479"/><path fill="#7da5d4" d="M412 379h2v13c-5 2-5 2-9 2v-3l7-2z"/><path fill="#faeece" d="M179 311c1 2.64 1.06 3.82.18 6.54l-1.3 2.65-1.26 2.67C175 325 175 325 172.32 325.8l-2.32.2 3.94-6.94 1.13-2c2.82-4.95 2.82-4.95 3.93-6.06"/><path fill="#e7bbb8" d="M630 1047c2.87 2.6 4.24 4.21 5 8q-1.87.8-3.75 1.56l-2.1.88c-2.45.64-3.79.36-6.15-.44l3-1 1-2h3l-.56-1.81c-.44-2.19-.44-2.19.56-5.19m1 4 1 2Z"/><path fill="#82a4cc" d="M8 537c1.17 3.52.84 4-.65 7.23l-1.1 2.43c-.6 1.25-.6 1.25-1.19 2.53l-1.17 2.56Q2.46 554.88 1 558H0v-7h2l.55-2.05.76-2.7.74-2.67A21 21 0 0 1 8 537"/><path fill="#f6e9f6" d="M560 39c0 4-1.36 5.24-3.94 8.15-3.78 3.4-9.81 7.85-15.06 7.85v-2l1.87-.78C550 49.01 554.8 44.77 560 39"/><path fill="#c6abdc" d="M441 1113q1.73 1.43 3.44 2.88l1.93 1.61C448 1119 448 1119 449 1121l-6-2-2 4-3-2z"/><path fill="#cb8b8e" d="M471 472a34 34 0 0 1 4 8.38q1.87 5.35 4 10.62h-3l-1-6h-2l-.37-1.94L472 481l-2-1q-.06-3.5 0-7z"/><path fill="#e7bab8" d="m607 217-1 3c-2.37 1.06-2.37 1.06-5 2l-3 2-3-1v2l-7 2c1-3 1-3 4.53-4.82q2.2-.96 4.4-1.87l2.26-.97c5.5-2.34 5.5-2.34 7.81-2.34"/><path fill="#739dc5" d="M662.94 47.38c4.49.91 6 3.68 8.64 7.26A17 17 0 0 1 674 61h-2l-1-4h-2l-.75-2.94c-1.92-3.32-1.92-3.32-5.12-3.68q-4.56-.35-9.13-.38v-1c2.98-.57 5.97-1 8.94-1.62"/><path fill="#9a7dad" d="M433 1189c-6.44 3.64-11.59 5.64-19 6 2-3 2-3 4.02-3.66l2.36-.4c2.51-.44 4.4-.82 6.66-2.06 2.41-1.08 3.52-.75 5.96.12"/><path fill="#ecd292" d="M634 738c6.02.73 11.97 2.2 16 7l2.19 2.19L654 749c-4.91-1.44-9-3.54-13.37-6.12l-1.95-1.13L634 739z"/><path fill="#679dd5" d="m650.19 538.38 1.81.62v2h2l-1 8c-1.46-2.65-2-3.9-2-7h-3l-1 2-3-1c1.16-3.47 2.27-5.3 6.19-4.62"/><path fill="#ebd08d" d="M340 1343a26 26 0 0 1 9 3v2l2.19.31c3.09.76 5.23 1.85 7.81 3.69v2c-4.74-1.38-8.73-3.44-12.87-6.06l-1.8-1.1q-2.2-1.39-4.33-2.84z"/><path fill="#f7cd51" d="m382 208 4 1c-1.39 2.78-3.37 4.8-5.44 7.13l-2.43 2.75C376 221 376 221 374 221a65 65 0 0 1 5.13-8.75l1.63-2.42z"/><path fill="#629ddb" d="m250 112 4 1v2l4 1v7c-2-3.75-2-3.75-2-6l-6 3c-1.12-1.75-1.12-1.75-2-4 .88-2.25.88-2.25 2-4"/><path fill="#e3d4b3" d="m706 612 3 1c-3.03 3.26-6.3 5.55-10 8-2.43 2.08-3.7 4.09-5 7l-2-1c.87-4.9 3.7-6.76 7.38-9.81l1.78-1.56c1.74-1.46 1.74-1.46 4.84-3.63"/><path fill="#c0a7d3" d="M60 591a78 78 0 0 1 16 8h-9v-2h-2v-2h-7z"/><path fill="#f3e6f5" d="M153 564c2.3 3.44 2.27 4.83 2.25 8.88l.02 3.11A22 22 0 0 1 153 584h-2l.44-3.81c.6-5.4 1.09-10.79 1.56-16.19"/><path fill="#8cb0d7" d="M14 514h2c.54 8.32-1.99 15.74-6 23-1.23-3.7-.58-4.6.88-8.12A47 47 0 0 0 14 514"/><path fill="#9d80b4" d="M428 1173c-2.56 2.56-3.88 2.37-7.44 2.63l-2.93.22q-2.81.15-5.63.15l-3 1-3-3c7.34-.58 14.63-1.15 22-1"/><path fill="#eeca55" d="M191 724c2.64 2.4 4.4 5.02 6.25 8.06l1.64 2.66L200 737l-1 2c-3.67-3.37-6.12-6.36-8-11z"/><path fill="#a992b4" d="M127 601h2c-1.66 4.12-4.62 7.07-7.62 10.25l-1.57 1.68L116 617l-2-3 4-1v-2h2l.81-1.75A33 33 0 0 1 125 603h2z"/><path fill="#6594c3" d="M263 397h3l.55 2.3A198 198 0 0 0 272 418h-2l-3.5-8.81-1.01-2.53-.96-2.43-.89-2.24C263 400 263 400 263 397"/><path fill="#c48586" d="M478 216h2l-.19 3c-.02 4.47 1.47 7.91 3.19 12-3.16-1.37-4-1.99-6-5-.23-2.23-.23-2.23-.19-4.62l.02-2.42C477 217 477 217 478 216"/><path fill="#e6b3b4" d="M144 1259c2.06 3.08 2.3 4.46 3 8q1.2 3.48 2.48 6.91c.52 2.09.52 2.09-.48 5.09-3.27-5.49-5.16-9.27-5.06-15.75l.02-2.42z"/><path fill="#b3bb98" d="m575 1160 2 1v2q-2.96 2.05-6 4c-2.14 2.14-2.43 3.13-3 6l-3-1c1.37-5.65 5.68-8.51 10-12"/><path fill="#d8c8e0" d="M141 568c3.2 3.2 2.37 6.9 2.38 11.24-.12 5.41-1.09 8.54-4.38 12.76l-2-2 1.44-1.56c3.76-5.86 2.67-13.71 2.56-20.44"/><path fill="#bba4ce" d="m365 1186 2.88 1c2.9 1.1 2.9 1.1 5.12 1v3l6-1v2l2 1c-4.06 1.35-5.77.15-9.69-1.44l-3.57-1.43L365 1189z"/><path fill="#74a6e4" d="m0 540 5 1a43 43 0 0 1-3 10H0z"/><path fill="#fbefcb" d="m330 161 1 2h2c1.3 3.92 1.2 6.86 1 11l-2 2c-2.12-.37-2.12-.37-4-1l1.52-1.67c1.84-2.9 1.65-4.23 1.17-7.58l-.37-2.7z"/><path fill="#f2e3f1" d="m438 1184 2 1c-3.91 5.87-9.25 8.5-16 10l-1-2 2.52-1.2 6.56-3.2c2.49-1.36 4.1-2.47 5.92-4.6"/><path fill="#c0c7a6" d="M304 536c1 2 1 2 .36 4.31l-1.05 2.69-1 2.69c-1.48 2.62-2.54 3.28-5.31 4.31 1.46-5.31 3.98-9.46 7-14"/><path fill="#c1a7cf" d="M136 506v2l-6.31 3.06-3.55 1.73C123 514 123 514 120 513l1.86-1.02 2.45-1.36 2.43-1.33C132.5 506 132.5 506 136 506"/><path fill="#e7cd87" d="M176 312h2a45 45 0 0 1-7 13h-2l-2-4h4l.81-1.69A74 74 0 0 1 176 312"/><path fill="#e6afb2" d="M187 1300c5.73 2.98 10.27 6.62 15 11l-2 2-1-3c-2.42-1.17-2.42-1.17-5-2l-2-1v-2l-3-1v-2h-2z"/><path fill="#c3caa7" d="m299 557-1.94 2.31c-3.28 4.29-3.11 7.4-2.9 12.53C294 574 294 574 292 577l-.06-6.69-.04-3.76c.09-3.03.26-5.64 1.1-8.55 3.3-2.35 3.3-2.35 6-1"/><path fill="#aa8cbf" d="M112 535c2.7.15 4.47.48 6.45 2.4q1.84 2.26 3.55 4.6c-5.47.36-5.47.36-7.81-1.25A13 13 0 0 1 112 535"/><path fill="#90b0d5" d="m250 147 2 1q-1.3 2.26-2.69 4.5l-1.5 2.53C246 157 246 157 243.28 157.28L241 157v-2l3-1 4-5h2z"/><path fill="#6095cc" d="m671 59 1 2 3 1c1.18 3.55.9 5.98.56 9.69l-.3 3.57L675 78h-1l-1-15h-2z"/><path fill="#5892cd" d="m659.31 49.88 3.8.05L666 50c-3.64 2.05-6.67 2.37-10.78 2.66A17 17 0 0 0 649 55v-2l-2-1c4.22-2.05 7.65-2.21 12.31-2.12"/><path fill="#d9cadf" d="M460 1139c3.11 4.67 2.6 9.53 2 15a28 28 0 0 1-4 7l-2-2 1.44-2.31c2.55-4.38 2.74-7.68 2.56-12.69l-1-2z"/><path fill="#f1dff3" d="M420 1092v3c3.37 3.08 7.18 5.51 11 8l-2 2-6.5-4.37-1.88-1.26A109 109 0 0 1 416 1096v-2z"/><path fill="#fbecb7" d="m164 751 1.13 1.56c1.86 1.77 1.86 1.77 4.75 1.19L173 753l2.88-.56L178 752l-1 2h-2l-1 3h-8z"/><path fill="#df676a" d="m231 637 2 1q.12 2.43.19 4.88l.1 2.74L233 648c-3.85 2.57-5.59 1.83-10 1v-3l2.88.5c2.92.55 2.92.55 5.12.5z"/><path fill="#9f83b1" d="m96 621 1 3H78v-1c6.07-1.23 11.8-2.28 18-2"/><path fill="#af97ba" d="m154 580 3 1-1 9h-5z"/><path fill="#cf9194" d="M476 442h2a24 24 0 0 1-2.5 6.94A25 25 0 0 0 473 457l-2-1c.47-5.7 1.94-9.16 5-14"/><path fill="#709dca" d="M382 373v1l-8 1v2c-3.98 1.33-7.85 1.07-12 1 3.4-1.85 6.88-3.03 10.56-4.19l3.44-1.1c3-.71 3-.71 6 .29"/><path fill="#5790c9" d="m659.88 840.69 3.24-.12c2.88.43 2.88.43 4.76 2.32C669 845 669 845 669 847l-3-1-1-3a107 107 0 0 0-16 1l1.94-.94c3.48-1.79 4.72-2.28 8.93-2.37"/><path fill="#b18ace" d="m460 837 3 1-3.87 4.5-2.18 2.53L455 847h-2c1.22-4.9 2.65-7.35 7-10"/><path fill="#cc8483" d="m449 432 1 2q-1.4 3.05-3 6h-2l-.37 1.69A59 59 0 0 1 442 449c-.8-2.32-1.13-3.6-.36-5.96A56 56 0 0 1 449 432"/><path fill="#e2acaf" d="M552 417c-.44 2.38-.44 2.38-2 5a32 32 0 0 1-14 2l1.68-.84q2.41-1.2 4.83-2.45l2.62-1.33 2.63-1.36C550 417 550 417 552 417"/><path fill="#e0a0a3" d="m562 406 2 1-1.31 1.19c-1.84 1.83-1.84 1.83-3.25 4.5L558 415h-2v2l-4 1c1.48-3.45 3.44-5.65 6.13-8.25l2.19-2.14z"/><path fill="#f7cf58" d="m395 231 2 2c-.24 4.44-2.2 6.69-5 10l-1.06 2.25C390 247 390 247 387 248v-2h2l.19-2.12c.81-2.88.81-2.88 3.37-5.94 2.87-2.82 2.87-2.82 2.44-6.94"/><path fill="#f8e8fb" d="M608 1444c5.73 2.46 9.78 7.45 12.44 13l.56 2h-2c-1.22-1.71-1.22-1.71-2.5-3.94-1.68-3.11-1.68-3.11-4.5-5.06v-2l-4-2z"/><path fill="#f4e8f5" d="m471 1056 1 3c-1.51 2.34-1.51 2.34-3.69 4.94l-2.13 2.59A115 115 0 0 1 460 1073c1.47-4.36 3.83-7.72 6.63-11.31l1.27-1.67z"/><path fill="#f1ca56" d="m388 1033 3 1c-2.73 4.73-4.93 6.93-10 9 1.22-4.9 2.65-7.35 7-10"/><path fill="#d0e7f4" d="M648 856c3.68 1.54 5.99 3.78 8.75 6.63l2.42 2.47L661 867l-3 1-.81-1.94c-1.08-2.4-1.08-2.4-4.19-3.06-2.69-2.44-2.69-2.44-5-5z"/><path fill="#be9fd7" d="m452 830-2.69 1.31c-2.85 1.46-5.58 3-8.31 4.69l-2-4q2.12-.8 4.25-1.56l2.4-.88c2.54-.6 3.9-.4 6.35.44"/><path fill="#fcf0cc" d="M627 735a81 81 0 0 1 10.81 5.13L643 743c-3.52 1.17-4.86.54-8.15-.97-2.99-1.66-5.34-3.7-7.85-6.03z"/><path fill="#d0d5bc" d="m311 617 1.69.88a33 33 0 0 0 4.87 2.12c2.44 1 2.44 1 5.44 3 2.11.63 2.11.63 4 1l-1 3c-6.06-1.4-10.43-4.95-15-9z"/><path fill="#a990b7" d="M66 542c1.63 1.63 1.63 1.63 3 4-.81 3.25-.81 3.25-2 6h2l-1 4c-2.98-4.1-3.38-6.97-3-12z"/><path fill="#d0e6f5" d="M378 400v2a50 50 0 0 1-17 2 31 31 0 0 1 8.5-3.12l2.28-.51C374 400 374 400 378 400"/><path fill="#6494c4" d="M648 60c3 2 3 2 3.94 3.94 1.27 2.47 2.85 3.44 5.06 5.06v2h2l-1 3-12-12z"/><path fill="#6895c2" d="m395 1454 2 5h-10c4.63-5 4.63-5 8-5"/><path fill="#edc958" d="M364 1034h2c3.02 3.13 3.59 6.02 4.19 10.25l.48 3.27.33 2.48c-2.46-2.46-3.3-4.78-4.62-8l-1.36-3.25C364 1036 364 1036 364 1034"/><path fill="#bea0d4" d="M565 799h2a64 64 0 0 1-7 16h-2l1-4h2v-4h2z"/><path fill="#edd79c" d="M623 724h1l1 7 2.25.81A23 23 0 0 1 634 736v2c-4.15-1.47-7.68-3.07-11-6-.53-2.85-.3-5.08 0-8"/><path fill="#fbedb9" d="M144 721c2.63 1.31 3.12 2.74 4.5 5.31l1.28 2.37q1.65 3.15 3.22 6.32c-2-1.37-2-1.37-4-3v-2l-1.94-.94C145 728 145 728 144 727q-.06-3 0-6"/><path fill="#9e7eb0" d="m112.25 600.94 2.7.02 2.05.04-1 2h-3v2l-2.81-.56c-3.2-.68-3.2-.68-6.19.56l-1-3c3.16-.94 5.97-1.1 9.25-1.06M111 602l1 2Z"/><path fill="#c4adce" d="m155 556 2 1c.48 1.78.48 1.78.75 3.94l.3 2.15C158 565 158 565 156 567h-2c-.12-7.62-.12-7.62 1-11"/><path fill="#7ca5cf" d="m398 368-4 1v2l-11 2-1-2q2.87-1.04 5.75-2.06l3.23-1.16c2.94-.76 4.24-.85 7.02.22"/><path fill="#7fa4c9" d="M0 1323h6c-1.44 3.37-3.33 5.51-6 8z"/><path fill="#baa1cf" d="m391 1170 10 2-4 1-1 4-1-2c-2.02-1.13-2.02-1.13-4-2z"/><path fill="#f6d47a" d="m515 652 3 1-5 6c-3.24-.35-4.62-.56-6.81-3.06L505 654h4v3c3.63-1.87 3.63-1.87 6-5"/><path fill="#d5e9f6" d="M657 558h2v9c-6.5 3.13-6.5 3.13-11 2l9-4z"/><path fill="#db727e" d="M181 1365h2v3l-5 1-1 3-10 1 1-2q3-.8 6-1.5a19 19 0 0 0 6-2.5z"/><path fill="#fde0e0" d="m198 1356 1 3-3.75 3.88q-1.05 1.06-2.1 2.17c-2 1.81-3.7 2.9-6.15 3.95v-3c1.64-1.46 1.64-1.46 3.81-2.94A25 25 0 0 0 198 1356"/><path fill="#d89297" d="m167 1346 2 1c-2.58 2.64-4.54 3.22-8.1 3.3q-2.33-.04-4.65-.11l-2.4-.04-5.85-.15v-1l3.4-.4 4.41-.54 2.24-.26a44 44 0 0 0 8.95-1.8"/><path fill="#eac5c4" d="m163 1225 2 1-1.6 1.17c-3.73 2.74-7.25 5.42-10.4 8.83l-2-1c3.56-4.74 6.61-7.46 12-10"/><path fill="#c2add1" d="M465 1061h2c-1.78 4.04-4.4 7.46-7 11l-3-1h2l.31-2.31c.74-2.87 1.36-3.92 3.69-5.69h2z"/><path fill="#6898c8" d="M245 899c5.03.46 8.15 3 12 6-3.62 1.2-4.64.54-8-1v-2l-4-1z"/><path fill="#e8c963" d="M200 739c1.5 1.38 1.5 1.38 3 3v2q-3.15 1.05-6.31 2.06l-3.55 1.16C190 748 190 748 187 747l2.59-.73 3.35-1.02 3.34-.98c2.88-.97 2.88-.97 3.6-3.41z"/><path fill="#f3c83c" d="m196 745-9 2v2h-6a16.6 16.6 0 0 1 6.94-4.81l2.02-.83C192 743 192 743 196 745"/><path fill="#c1a9d2" d="m44 611 11 5c-4 2-4 2-6.14 1.32l-2.11-1.2-2.14-1.17L43 614z"/><path fill="#a689b9" d="M73 560c2.39.58 4.67 1.22 7 2v2l6 1v3c-5.26-1.41-8.76-3.69-13-7z"/><path fill="#a685bc" d="m87 527 1 2-6 2-1 5h-3v-2l-2-1z"/><path fill="#c97a7f" d="M471 456c1.22 3.67.88 6.34.56 10.19l-.3 3.85L471 473c-2.45-2.45-2.68-4.44-3.05-7.82.08-3.57 1.42-6.05 3.05-9.18"/><path fill="#d9e9f6" d="M258 129h1c.49 6.7-.92 11.07-4 17h-2l.59-1.94q2.26-7.51 4.41-15.06"/><path fill="#bfa0d8" d="M569 0h2q.08 2.69.13 5.38l.07 3.02C571 11 571 11 569 13c-1.3-4.61-.71-8.34 0-13"/><path fill="#c8cab1" d="M15 1137h4c.13 2.88.13 2.88 0 6l-2 2h-2z"/><path fill="#9b77b2" d="M414 1094c5.88 3.75 5.88 3.75 7 6l-7-2-1 2v-2l-3-1z"/><path fill="#b997d5" d="M437 836c-4.3 4.92-4.3 4.92-7.81 5.31L427 841c.98-2.45 1.69-3.78 3.88-5.31 2.47-.8 3.7-.55 6.12.31"/><path fill="#a185ad" d="m146 598 4 1-2 5h-4c0-3 0-3 2-6"/><path fill="#d3d5bf" d="M295 593c2.5 2.25 2.5 2.25 5 5v4l3 1-2 4a794 794 0 0 1-4.69-8.3C295 596 295 596 295 593"/><path fill="#cc7c7a" d="M479 587h1l.75 2.69c1.77 4.67 4.66 7.9 8.25 11.31-3.93-.9-5.7-1.66-8.37-4.75-1.73-3.45-2-5.46-1.63-9.25"/><path fill="#86acd7" d="M635 574c-3.28 2.19-5.33 2.54-9.19 3.13l-3.29.5-2.52.37c2-3 2-3 4.13-3.69 3.65-.4 7.2-.37 10.87-.31"/><path fill="#cb8888" d="M483 498c3.78 1.51 4 2.01 6 6h-11v-1h8l-4-2z"/><path fill="#6ea5e0" d="M408 366v2l-2.87.94c-3 .93-3 .93-5.13 2.06v-2l-6 1c4.03-3.86 8.58-4 14-4"/><path fill="#e7d08b" d="m155 307 4 1v3h2c1.5 1.75 1.5 1.75 3.13 4l1.63 2.25L167 319l-1 2-5.5-6.44-1.59-1.85C155 308.1 155 308.1 155 307"/><path fill="#e8cd88" d="M156 294a17 17 0 0 1 1 4l-2 3c-.17 3.13-.17 3.13 0 6l-4-3a53 53 0 0 1 5-10"/><path fill="#d3c5e4" d="M264 1146c-2.69 2.69-5.38 3.06-9 4l-1-3c3.47-1.16 6.36-1.07 10-1m-14 2h4l-1 2h-3z"/><path fill="#fdf0cd" d="M152 1094a74 74 0 0 1 12 12h-3l-1-3-3-1c-5-5.47-5-5.47-5-8"/><path fill="#eed077" d="M394 1018c2.72 3.62 3.42 4.8 4 9l-4 3z"/><path fill="#5894d1" d="M228 891q2.51.43 5 1l-1.44 1.13c-2.08 2.5-2.2 4.69-2.56 7.87h-2l-.06-4.44-.04-2.5c.1-2.06.1-2.06 1.1-3.06"/><path fill="#f2e0f4" d="m429 838-11 7-1-2h2l1-3c3.67-2.78 4.35-3.16 9-2"/><path fill="#f6e7f9" d="M526 753c2.98 4.47 3.29 7.69 3 13l-2 2-.18-2.05-.26-2.7-.24-2.67c-.26-2.55-.26-2.55-.92-4.85L525 754z"/><path fill="#fceabf" d="M460 717c2.16-.3 2.16-.3 4.63-.19l2.47.08 1.9.11v1l-3.37.88c-3.63.81-3.63.81-5.63 3.12a90 90 0 0 0-1 6h-1c-.25-7.62-.25-7.62 2-11"/><path fill="#f0d9a4" d="M627 700c4.86.6 8.74 2.73 13 5-3.61 1.07-4.68.71-8-1-2.67-.17-2.67-.17-5 0z"/><path fill="#ab8fbf" d="m77 620 5 2c-3.39 2.08-6.05 2.43-10 2l-2-3 2.94.06c2.93.3 2.93.3 4.06-1.06"/><path fill="#619fe3" d="M641 543h3c-1.15 2.47-2.05 4.05-4 6 0-4 0-4 1-6m-4 5h2l1 4-3 1-1-3z"/><path fill="#bcc2a1" d="m64 114 3 1-7 14c-1-3-1-3-.26-4.9l1.13-2.04A28 28 0 0 0 64 114"/><path fill="#ad93c3" d="M380 1193q3.18-.08 6.38-.12l3.58-.08c3.04.2 3.04.2 5.04 2.2-5.8 1.02-9.46.96-15-1z"/><path fill="#dc7c78" d="M118 1144h1q.08 2.69.13 5.38l.07 3.02c-.2 2.6-.2 2.6-2.2 4.6-2.12-.37-2.12-.37-4-1h2c1.8-3.97 2.5-7.68 3-12"/><path fill="#9b7eb2" d="M383 1116h2l-.1 6.05c-.03 2.03-.03 2.03 1.1 3.95l-3 1c-1-1-1-1-1.13-3.03v-4.94c.13-2.03.13-2.03 1.13-3.03"/><path fill="#5e97ce" d="M656 860h3v2l4 2v3c-1.81-.19-1.81-.19-4-1-3-4.29-3-4.29-3-6"/><path fill="#ccb6d8" d="M130 550c3.4 3.13 5.6 5.57 7 10l-2 2v-3l-3-1c-.73-1.85-.73-1.85-1.19-4.06l-.48-2.23z"/><path fill="#c88384" d="m486 433 1 3-8 7-1-3c1.38-1.5 1.38-1.5 3-3h2v-2z"/><path fill="#e3989d" d="M521 425h12v4h-2v-2l-3 1v-2l-7 1z"/><path fill="#d07d88" d="M191 1364q-2.12 1.48-4.25 2.94l-2.4 1.65A17 17 0 0 1 178 1371v-2l5-1v-2c4.39-3.2 4.39-3.2 8-2"/><path fill="#ebd397" d="M371 1351h1l1 12c-5-2-5-2-6-4h4z"/><path fill="#f6cc54" d="M382 998c3 1 3 1 4.2 3.21l1.05 2.73 1.08 2.71c.67 2.35.67 2.35-.33 4.35l-1.02-2.12-1.36-2.75-1.33-2.75c-1.2-2.48-1.2-2.48-3.29-4.38z"/><path fill="#9872b4" d="m98 525-5 5v-3l-5 2c1-3 1-3 3.31-4.25 2.79-.78 4.02-.74 6.69.25"/><path fill="#fcefd1" d="M357 1315c4.36.5 7.44 1.38 11 4v2a39 39 0 0 1-11-5z"/><path fill="#b0b794" d="M558 1181c2 2 2 2 2 6h-3l-1 5h-1c.75-7.62.75-7.62 3-11"/><path fill="#cfc0d6" d="m453 1097 4 2v3l-2 2c-1.56-1.25-1.56-1.25-3-3 .31-2.19.31-2.19 1-4"/><path fill="#e3f4fc" d="M637 847c5 1.47 7.52 4.28 11 8l-1 2-4.44-3.31-2.5-1.87C638 850 638 850 637 847"/><path fill="#fcecad" d="M153 735c3.4 3.13 5.6 5.57 7 10-2.94-1.62-2.94-1.62-6-4-.87-3.25-.87-3.25-1-6"/><path fill="#5898da" d="M360 395h3l.81 1.88c1.15 2.42 1.15 2.42 4.19 4.12-5.75.13-5.75.13-8-1z"/><path fill="#e8b9ba" d="M600 384c1.97 1.37 2.88 2.55 3.5 4.88.84 5.61.84 5.61-1.5 9.12l-1-5.87-.56-3.31C600 386 600 386 600 384"/><path fill="#fbefd2" d="m335 1302 10 5v2a41 41 0 0 1-11-5z"/><path fill="#e1f0f9" d="M661 870q.9.45 1.81.94c3.55 1.72 5.45 2.22 9.19 1.06l-1 3-5 1z"/><path fill="#959e7a" d="m367 549 3 2v2h-10c4-3 4-3 7-4"/><path fill="#e9cdcb" d="m562 337 6 5-2 1-1 3c-2.3-3.44-3-4.72-3-9"/><path fill="#e3bab7" d="M615 232c2.54 2.3 4.07 4.67 5.69 7.69l1.32 2.45.99 1.86c-1.9-.3-1.9-.3-4-1a42 42 0 0 1-4-11"/><path fill="#629ad4" d="m227 100 4 1-1 2 .06 3.5C230 110 230 110 228 112z"/><path fill="#e2a5aa" d="M201 1312c5.9 5.59 5.9 5.59 7 9q-.44 2.01-1 4l-3.8-7.52C202 1315 202 1315 201 1312"/><path fill="#e1cbee" d="M390 1104c2.63-.19 2.63-.19 5 0-2.58 2.65-4.92 4.94-8 7a17 17 0 0 1 3-7"/><path fill="#e8c1bf" d="m575 1023 2 1-8 7-2-2z"/><path fill="#f6cc50" d="M373 1010h2a103 103 0 0 1-5 9l-3-1q1.42-2 2.88-4l1.61-2.25z"/><path fill="#ba9bd2" d="M409 856c-.35 3.26-1.02 4.02-3.56 6.25L403 864c.38-2.78.67-4.59 2.44-6.81C407 856 407 856 409 856"/><path fill="#b491cf" d="m423 841 3 1-7 6v-4c1.81-1.81 1.81-1.81 4-3"/><path fill="#7fa7ce" d="M629 549v3l-3 1-1 2c-3.06.63-3.06.63-6 1 3-3.34 5.93-5.15 10-7"/><path fill="#7398c1" d="M651 534c2 3 2 3 1.63 5.19L652 541v-2l-7 1z"/><path fill="#e5bfbe" d="m633 261 2 1v3c-4.12 1.3-7.67 2.26-12 2 3.28-2.19 6.2-3 10-4z"/><path fill="#eac4c3" d="m574 233 1 2q-1.65 1.55-3.31 3.06l-1.87 1.73L568 241l-3-1a35 35 0 0 1 9-7"/><path fill="#85addb" d="m230 139 2 2c-.02 2.38-.02 2.38-.37 5.13l-.34 2.75L231 151h-2z"/><path fill="#fce7b1" d="M96 1342h1l.33 2.08.48 2.73.46 2.71c.78 2.66 1.62 3.74 3.73 5.48-4.87-.87-4.87-.87-6-2q-.1-2.77-.06-5.56l.02-3.07z"/><path fill="#b5b99b" d="M557 1205a91 91 0 0 1 4 9h-3c-1.62-2.57-2.04-3.68-1.62-6.75z"/><path fill="#5997dc" d="M650 538v4h-2l-1 2-3-1c1.13-3.38 2.21-5 6-5"/><path fill="#e2eef8" d="M0 502c4.96 1.24 7.12 2.79 10 7a45 45 0 0 1-10-5z"/><path fill="#e0d0e7" d="M110 486v3c-2.31 2.25-2.31 2.25-5 4l-3-1z"/><path fill="#ce8289" d="M471 472c2.29 3.44 2.18 4.99 2 9l-3-1q-.06-3.5 0-7z"/><path fill="#fdefbd" d="M249 1455h10l1 4-11-3z"/><path fill="#df949b" d="m181 1302 6 2-2 2c-.17 2.58-.17 2.58 0 5-2-2.99-2.94-5.6-4-9"/><path fill="#e9c3c3" d="M175 1250c1 2 1 2 .22 4.6l-1.16 3.03-1.15 3.03-.91 2.34c-1.33-3.98-.33-6.08 1-10z"/><path fill="#c9b7d6" d="M416 1145h3v2l5 2v2a29 29 0 0 1-9-5z"/><path fill="#bfa6cd" d="m472 1130 4 1-1 6-1-2h-2z"/><path fill="#c7c8b0" d="M9 1131v1l-9 2v-4c3.2-1.6 5.72-.03 9 1"/><path fill="#e0d3e6" d="m401 1087 1 4-6 5a29 29 0 0 1 5-9"/><path fill="#b096c0" d="m514 726 6 3-1 4h-2c-3-4.38-3-4.38-3-7"/><path fill="#f7ebf7" d="m117 595 3 2v2c-3.21 1.6-6.44 1.06-10 1v-1l2.94-.87c3.17-.77 3.17-.77 4.06-3.13"/><path fill="#e6f2fa" d="M652 570c-3.28 2.19-6.2 3-10 4l1-3c2.96-1.48 5.74-1.06 9-1"/><path fill="#fbf3fa" d="m123 541 5 2v2l3 1v3h-2c-1.5-1.75-1.5-1.75-3.12-4l-1.64-2.25z"/><path fill="#f3e4f4" d="M159 485c0 3.59-.66 4.1-3 6.69l-1.69 1.88L153 495l-2-1z"/><path fill="#c2a8d1" d="m146 472-1 3c-1.85.73-1.85.73-4.06 1.19l-2.23.48-1.71.33c.81-1.94.81-1.94 2-4 3-1 3-1 7-1"/><path fill="#a086ac" d="M466 1166h1v7l-4-1c1.88-4.87 1.88-4.87 3-6"/><path fill="#f4cec8" d="m104.29 1136.9 2.77.04 2.79.02 2.15.04v1l-3.75.31c-3.53.43-5.62 1.17-8.25 3.69 1.12-4.96 1.12-4.96 4.29-5.1"/><path fill="#ebcc81" d="M177 1101c1 3 1 3 .22 4.82L174 1111h-2c1.16-3.91 2.36-6.87 5-10"/><path fill="#f9eef7" d="m439 1083 2 1c-3.36 2.96-6.7 3.92-11 5 2.55-2.97 5.42-4.48 9-6"/><path fill="#c1acd0" d="m484 1036 2 3-6 7-3-2 3-1c1.22-1.63 1.22-1.63 2.19-3.56z"/><path fill="#f3c640" d="M366 1020c0 3.24-.75 5.05-2 8l-1 3c-.75-3.25-.75-3.25-1-7 1.94-2.44 1.94-2.44 4-4"/><path fill="#b59aca" d="M470 830h7c-1 2-1 2-2.85 2.63l-2.21.5-2.23.5-1.71.37z"/><path fill="#e9f3fa" d="M617 554c-1 3-1 3-2.87 4.19-2.13.81-2.13.81-5.13.81v-2c5.75-3 5.75-3 8-3"/><path fill="#f5e6f4" d="M111 519v2l-6 1v2l-3 1v-3c6.75-3 6.75-3 9-3"/><path fill="#c0aec6" d="M185 457v2a159 159 0 0 1-6 5l-1-5c4.75-2 4.75-2 7-2"/><path fill="#6b9fd4" d="M229 119c1.95 3.56 2.17 5.93 2 10v4c-2-2-2-2-2.2-4.82l.07-3.3.06-3.33z"/><path fill="#cdb7dc" d="M403 108c5.63-.25 5.63-.25 9 2l-1 3-8-4z"/><path fill="#cbbad5" d="M441 1113q1.73 1.43 3.44 2.88l1.93 1.61C448 1119 448 1119 449 1121c-2.44-.81-2.44-.81-5-2l-1-3h-2z"/><path fill="#7ba7da" d="M255 924c1 3 1 3-.44 6.19L253 933l-2-1v-2h2l.44-2.44C254 925 254 925 255 924"/><path fill="#cab3db" d="M60 591c2.92 1.07 4.78 1.78 7 4h-9z"/><path fill="#faf2f5" d="m144 580 2 3c-1.37 3.16-1.99 4-5 6z"/><path fill="#b59bc8" d="M86 567c2.42.48 4.66 1.22 7 2v3c-5.75-1.75-5.75-1.75-8-4z"/><path fill="#e6cef6" d="m86 526 2 1q-2.18 1.3-4.37 2.56L81.16 531 79 532l-2-1c5.63-3.87 5.63-3.87 9-5"/><path fill="#ebf6fb" d="M414.31 359.88 416 361c-3.82 1.42-6.91 2.24-11 2 2.82-2.82 5.38-4.61 9.31-3.12"/><path fill="#edca62" d="m388 247 2 1-5 6-3-1c3.75-4.87 3.75-4.87 6-6"/><path fill="#cc9493" d="m482 228 8 2-3 1v2l-5-1z"/><path fill="#ccb4df" d="m501 45-1 4-8-1c5.8-3 5.8-3 9-3"/><path fill="#cb9296" d="M271 0h3c-.56 3.27-1.5 4.83-4 7l-2-1z"/><path fill="#e5f1f9" d="m5 1325 1 3-5 5c.6-3.36 1.85-5.38 4-8"/><path fill="#a488b6" d="m440 1171-3 3v-2h-2v2l-3-1c1.86-3.72 4.55-3.07 8-2"/><path fill="#eccf87" d="M161 1076c.81 1.69.81 1.69 1 4-2.44 2.75-2.44 2.75-5 5 1.06-3.4 2-6.01 4-9"/><path fill="#b6bd98" d="m50 871 1 2h3l-2 6c-2.15-3.23-2.2-4.28-2-8"/><path fill="#c0a3d7" d="M565 767c2.13 3.19 2.5 5.27 3 9h-2c-2.1-4.43-2.1-4.43-1.62-7.31z"/><path fill="#fcefbe" d="M203 744v3h-9c3.13-2.08 5.27-3 9-3"/><path fill="#f5e8f3" d="M151 599h2v2h-2l-.75 1.94C149 605 149 605 146.92 605.63L145 606l2.88-3.5 1.61-1.97z"/><path fill="#c77071" d="m477 500 9 1v2h-10z"/><path fill="#bea5ce" d="M155 470c-5.75 3-5.75 3-8 3l1-3c3.13-1.04 3.99-.93 7 0"/><path fill="#edc4c4" d="M594 372c2.8 2.53 4.46 4.2 5 8h-3c-1.26-2.9-2-4.8-2-8"/><path fill="#7499be" d="M639 53h2a25 25 0 0 1 3 5l-1 2-6-5z"/></svg>